{"glyphs":{"0":{"ha":539,"x_min":-12,"x_max":515,"o":"m 382 850 q 406 847 396 854 q 420 827 415 840 q 426 798 425 814 q 422 769 426 782 q 465 733 447 756 q 508 626 501 686 q 504 504 515 567 q 469 383 493 442 q 418 279 444 324 q 378 223 401 254 q 325 163 354 192 q 263 110 296 133 q 194 74 229 86 q 124 67 160 63 q 57 100 89 72 q 0 194 13 138 q -5 311 -12 250 q 22 431 3 372 q 63 535 42 490 q 193 724 113 639 q 382 850 274 808 m 229 488 q 215 456 226 467 q 192 445 204 446 q 169 454 179 444 q 154 485 158 464 q 131 439 140 463 q 111 388 121 415 q 94 281 92 333 q 118 197 96 228 q 181 169 140 167 q 283 229 222 172 q 339 293 314 257 q 384 369 364 329 q 417 449 404 408 q 436 525 431 489 q 440 579 440 550 q 428 631 439 608 q 397 663 418 653 q 342 661 376 674 q 292 632 313 650 q 260 591 272 614 q 240 541 247 568 q 229 488 233 514 z "},"1":{"ha":383,"x_min":-18,"x_max":483,"o":"m 472 825 q 479 777 483 801 q 458 733 475 753 q 285 472 354 614 q 163 183 215 331 q 209 188 186 188 q 251 178 232 188 q 272 158 265 172 q 279 128 279 144 q 273 98 279 113 q 254 78 267 83 q 197 63 228 64 q 138 58 167 63 q 77 49 107 56 q 17 47 47 43 q -4 60 4 49 q -15 85 -12 71 q -15 114 -18 100 q -1 135 -12 128 q 50 160 22 153 q 107 174 78 168 q 90 218 93 192 q 103 311 88 265 q 136 400 119 357 q 208 554 168 478 q 221 577 215 565 q 232 600 226 589 q 167 558 200 578 q 99 526 135 538 q 70 531 82 522 q 53 555 58 540 q 48 585 47 569 q 57 608 49 600 q 97 642 74 626 q 144 672 119 657 q 192 699 168 686 q 236 725 215 713 q 326 784 281 754 q 411 849 371 814 q 447 854 431 864 q 472 825 464 844 z "},"2":{"ha":564,"x_min":-25,"x_max":542,"o":"m 192 258 q 160 228 175 243 q 131 199 146 214 q 152 199 142 199 q 174 200 163 199 q 246 203 210 201 q 318 204 282 206 q 352 183 340 203 q 365 138 364 163 q 355 93 365 114 q 322 69 344 72 q 209 62 265 63 q 97 60 153 61 q 52 58 75 58 q 11 69 29 57 q -16 104 -8 83 q -25 146 -24 125 q -17 192 -25 171 q 3 231 -10 213 q 33 265 17 249 q 65 297 50 282 q 138 367 101 333 q 211 435 175 400 q 288 506 250 471 q 363 578 325 540 q 388 601 369 585 q 423 635 406 617 q 452 674 440 654 q 460 706 464 693 q 427 722 453 722 q 370 716 401 722 q 311 700 339 710 q 274 686 283 690 q 234 667 256 678 q 192 642 213 657 q 158 610 172 628 q 139 569 143 592 q 124 541 135 549 q 103 536 114 533 q 83 551 92 539 q 76 581 75 563 q 99 664 78 626 q 151 731 119 701 q 223 781 183 760 q 303 815 263 803 q 387 836 342 828 q 469 828 432 844 q 524 774 508 813 q 542 697 540 736 q 522 609 542 651 q 470 529 501 567 q 403 458 439 492 q 336 396 367 425 q 264 327 300 361 q 192 258 228 293 z "},"3":{"ha":514,"x_min":-22,"x_max":532,"o":"m 478 813 q 513 778 500 800 q 528 733 525 757 q 526 684 532 708 q 503 640 519 660 q 455 599 483 617 q 401 561 426 581 q 344 519 374 540 q 286 476 315 497 q 260 456 274 465 q 233 436 246 447 q 218 422 222 428 q 254 392 236 410 q 288 357 272 374 q 336 272 324 321 q 329 174 349 224 q 263 94 310 125 q 161 56 215 63 q 58 67 107 49 q -17 139 8 86 q -22 172 -22 151 q -17 210 -22 192 q 1 239 -11 228 q 35 243 14 250 q 64 231 46 239 q 103 217 82 224 q 148 206 125 210 q 192 204 171 201 q 242 238 244 211 q 204 299 240 265 q 174 330 189 314 q 150 365 160 346 q 137 440 133 401 q 165 510 140 478 q 221 562 186 535 q 294 615 256 589 q 372 666 333 640 q 440 715 411 692 l 442 715 q 278 678 358 715 q 126 581 199 642 q 103 574 113 568 q 88 594 93 581 q 83 624 83 607 q 89 650 83 640 q 167 726 119 696 q 263 776 214 756 q 313 798 285 786 q 369 817 340 810 q 426 825 397 825 q 478 813 454 825 z "},"4":{"ha":636,"x_min":-3,"x_max":608,"o":"m 553 779 q 573 794 563 796 q 591 783 583 793 q 603 758 599 772 q 607 733 608 743 q 565 550 597 642 q 503 371 533 458 q 472 281 488 326 q 439 192 456 236 q 425 152 432 174 q 409 110 418 131 q 388 72 400 89 q 357 43 375 54 q 333 37 344 36 q 313 42 322 38 q 299 56 304 47 q 293 71 293 64 q 297 113 292 90 q 310 160 301 136 q 327 208 318 185 q 344 249 336 231 q 293 250 318 249 q 244 253 268 251 q 149 255 197 254 q 54 258 101 256 q 19 278 32 260 q 1 322 6 297 q 3 369 -3 346 q 25 404 8 393 q 154 501 92 450 q 278 606 217 551 q 387 715 336 657 q 496 822 438 772 q 520 834 511 836 q 533 823 529 832 q 537 800 538 814 q 532 778 536 786 q 454 675 508 732 q 335 563 400 618 q 204 460 269 508 q 93 381 139 411 q 153 381 111 381 q 241 383 194 382 q 331 385 288 385 q 396 381 375 385 q 443 499 422 439 q 488 624 464 560 q 517 703 503 664 q 553 779 531 743 z "},"5":{"ha":632,"x_min":-26,"x_max":581,"o":"m 417 574 q 494 535 461 561 q 548 476 528 510 q 574 401 568 442 q 571 318 581 360 q 535 235 561 272 q 475 169 510 199 q 399 118 440 140 q 314 82 357 96 q 226 62 274 68 q 131 62 178 56 q 45 90 85 68 q -18 153 6 111 q -25 184 -24 164 q -22 222 -26 204 q -6 247 -18 239 q 26 242 6 256 q 147 195 86 204 q 278 208 208 186 q 335 229 304 217 q 395 259 367 242 q 447 299 424 276 q 481 349 469 321 q 478 397 492 378 q 439 428 464 417 q 385 446 414 440 q 335 451 356 451 q 197 434 263 454 q 68 386 132 414 q 36 388 49 378 q 17 415 24 397 q 10 451 11 432 q 14 481 10 469 q 72 602 43 542 q 132 721 100 663 q 139 760 132 740 q 161 781 146 779 q 201 784 174 782 q 263 788 228 786 q 336 793 297 790 q 410 798 375 796 q 474 801 446 800 q 517 801 503 801 q 535 788 531 801 q 538 756 540 774 q 528 719 536 738 q 507 693 519 701 q 436 667 479 674 q 346 662 393 661 q 251 668 299 663 q 169 678 204 674 q 158 645 165 665 q 142 603 150 625 q 126 563 133 582 q 113 531 118 543 q 185 551 144 540 q 266 569 225 563 q 347 578 307 576 q 417 574 386 581 z "},"6":{"ha":476,"x_min":-7,"x_max":550,"o":"m 518 771 q 549 693 549 731 q 525 611 550 656 q 505 592 515 594 q 486 594 494 589 q 474 610 478 600 q 475 632 471 621 q 476 672 485 657 q 451 696 468 688 q 415 707 435 704 q 381 708 394 710 q 304 684 340 704 q 237 635 268 664 q 179 570 206 606 q 133 500 153 535 q 244 508 188 515 q 344 461 300 500 q 414 355 396 419 q 413 228 432 290 q 358 135 397 176 q 270 72 319 93 q 168 56 221 50 q 72 107 115 63 q 17 198 35 146 q -4 306 -1 250 q 3 417 -7 361 q 31 521 13 472 q 83 626 50 574 q 162 722 117 679 q 261 793 207 764 q 376 828 315 822 q 453 817 417 831 q 518 771 490 804 m 132 357 q 94 365 108 349 q 94 287 88 329 q 133 218 101 244 q 197 197 160 197 q 267 213 235 197 q 321 256 300 228 q 333 317 342 283 q 310 350 329 336 q 263 369 290 364 q 201 372 235 375 q 132 357 167 369 z "},"7":{"ha":588,"x_min":1,"x_max":564,"o":"m 558 751 q 560 709 564 728 q 545 675 556 690 q 520 647 535 660 q 489 619 506 633 q 401 543 444 582 q 318 460 358 504 q 363 457 340 458 q 406 451 385 456 q 417 440 414 449 q 419 422 421 432 q 414 404 418 413 q 401 394 410 396 q 331 388 367 388 q 260 389 296 389 q 217 335 236 365 q 184 269 199 304 q 156 199 169 235 q 129 126 143 163 q 118 101 124 114 q 106 78 113 89 q 85 61 96 64 q 63 63 74 58 q 45 78 53 68 q 36 103 38 89 q 52 249 26 176 q 118 389 78 322 q 67 392 93 390 q 17 397 42 393 q 8 404 11 399 q 3 417 4 410 q 3 431 1 425 q 13 439 6 438 q 87 452 49 449 q 163 456 125 456 q 257 572 206 518 q 364 676 308 625 q 213 667 290 671 q 60 683 135 664 q 40 700 47 686 q 33 731 33 714 q 38 762 32 747 q 57 781 44 776 q 149 797 101 796 q 244 800 197 797 q 342 804 293 803 q 440 808 392 806 q 480 810 461 810 q 514 806 499 811 q 541 789 529 801 q 558 751 553 776 z "},"8":{"ha":575,"x_min":-4,"x_max":556,"o":"m 458 782 q 535 703 515 756 q 548 594 556 651 q 510 483 540 536 q 436 401 479 431 q 408 401 418 390 q 392 432 397 413 q 389 473 388 451 q 396 503 390 494 q 428 544 407 521 q 463 591 449 568 q 474 635 476 614 q 436 671 471 657 q 369 688 404 683 q 297 688 333 692 q 263 681 286 686 q 218 665 240 675 q 183 640 196 654 q 181 606 171 625 q 210 563 193 582 q 242 522 226 543 q 311 441 275 482 q 372 353 347 400 q 400 262 394 310 q 394 171 406 214 q 353 95 383 128 q 272 50 322 63 q 193 42 233 40 q 117 60 153 44 q 53 103 81 75 q 11 174 25 131 q -2 266 -4 219 q 15 356 0 313 q 58 438 31 400 q 124 501 86 475 q 93 569 104 533 q 88 646 82 606 q 138 747 96 710 q 235 799 179 785 q 353 808 292 814 q 458 782 414 803 m 304 211 q 307 254 318 226 q 274 312 296 282 q 228 369 251 342 q 194 408 204 396 q 185 419 190 414 q 176 428 181 424 q 169 411 176 418 q 137 371 154 396 q 108 318 119 346 q 96 263 96 290 q 117 218 96 236 q 158 195 132 204 q 210 184 183 186 q 263 188 238 182 q 304 211 289 194 z "},"9":{"ha":540,"x_min":-35,"x_max":508,"o":"m 488 721 q 506 686 504 710 q 503 646 508 663 q 456 501 483 578 q 394 349 429 424 q 315 205 358 274 q 221 83 272 136 q 156 34 190 53 q 85 21 122 15 q 35 49 61 25 q -8 99 10 72 q -30 145 -25 125 q -15 161 -35 165 q 22 158 0 158 q 69 160 44 157 q 135 186 104 164 q 192 242 165 208 q 242 317 218 276 q 285 400 265 358 q 321 480 304 442 q 351 546 338 518 q 274 490 321 518 q 178 448 226 461 q 88 445 129 435 q 29 504 46 456 q 23 588 14 549 q 56 662 32 628 q 115 723 81 696 q 186 769 150 750 q 252 798 215 785 q 328 816 289 811 q 404 816 367 821 q 472 790 442 811 q 488 761 485 782 q 485 724 492 740 q 488 721 488 724 m 408 704 q 301 683 361 707 q 183 614 242 658 q 137 569 154 592 q 121 531 119 546 q 144 513 122 515 q 215 526 167 510 q 267 553 238 533 q 326 600 297 574 q 377 654 354 626 q 408 704 400 682 z "},"\u0000":{"ha":0,"x_min":0,"x_max":0,"o":""},"\r":{"ha":422,"x_min":0,"x_max":0,"o":""}," ":{"ha":422,"x_min":0,"x_max":0,"o":""},"J":{"ha":674,"x_min":-7,"x_max":971,"o":"m 914 1046 q 943 1056 931 1063 q 963 1031 956 1049 q 970 990 969 1013 q 964 957 971 968 q 931 908 951 931 q 885 861 910 885 q 836 813 861 838 q 789 758 811 788 q 728 667 756 714 q 678 571 701 619 q 581 377 629 474 q 467 194 533 281 q 401 122 438 157 q 322 62 364 86 q 231 28 279 38 q 132 32 183 18 q 50 79 82 46 q 6 156 18 113 q 1 247 -7 200 q 38 335 8 294 q 101 400 63 369 q 182 447 139 431 q 270 460 225 463 q 356 428 315 458 q 370 397 367 419 q 370 354 374 375 q 356 320 367 333 q 326 318 344 307 q 246 335 296 338 q 151 311 196 332 q 80 248 88 279 q 98 198 72 217 q 171 178 124 179 q 265 206 218 178 q 385 313 335 247 q 479 455 436 379 q 561 611 522 531 q 644 764 600 692 q 656 782 651 774 q 667 799 661 790 q 565 794 607 794 q 482 794 522 794 q 395 788 442 793 q 281 768 349 783 q 223 753 250 761 q 176 733 196 744 q 149 709 157 722 q 149 681 140 696 q 163 669 156 674 q 176 658 169 664 q 209 642 193 649 q 240 627 225 635 q 270 610 256 619 q 297 586 285 601 q 308 563 306 578 q 310 534 311 549 q 302 507 308 519 q 283 489 296 494 q 240 482 263 481 q 196 491 218 483 q 153 511 174 499 q 117 536 132 524 q 55 633 69 576 q 64 750 40 690 q 118 831 83 799 q 198 881 153 863 q 295 908 243 900 q 401 919 347 917 q 508 922 456 922 q 604 922 560 921 q 769 953 688 924 q 914 1046 850 982 z "},"u":{"ha":507,"x_min":-28,"x_max":542,"o":"m 508 379 q 530 387 522 390 q 540 373 538 383 q 540 349 542 363 q 533 326 538 336 q 507 292 526 315 q 461 241 488 268 q 404 189 435 214 q 344 150 374 164 q 288 140 314 136 q 246 172 263 143 q 231 212 235 192 q 231 251 228 232 q 194 213 214 232 q 152 180 174 194 q 108 156 131 165 q 63 147 85 147 q 1 175 21 147 q -23 240 -18 203 q -21 317 -28 278 q -3 381 -14 357 q 30 444 8 408 q 78 515 51 481 q 136 579 106 550 q 194 622 167 608 q 231 626 215 632 q 255 606 246 619 q 266 575 264 592 q 263 549 268 558 q 242 514 254 533 q 215 474 229 494 q 185 435 200 454 q 161 403 171 417 q 99 310 119 347 q 82 259 79 274 q 110 254 85 244 q 181 303 135 264 q 233 358 204 322 q 292 435 261 394 q 355 515 324 475 q 414 585 386 556 q 437 595 425 596 q 458 586 449 594 q 472 565 467 578 q 474 540 476 553 q 456 492 469 517 q 426 442 443 467 q 392 393 410 418 q 363 344 375 368 q 331 282 344 313 q 317 235 318 251 q 329 219 315 218 q 379 254 343 221 q 408 284 392 267 q 442 319 425 301 q 477 353 460 338 q 508 379 494 369 z "},"l":{"ha":251,"x_min":-36,"x_max":363,"o":"m 229 846 q 246 869 233 853 q 274 894 258 885 q 301 897 285 901 q 333 881 318 892 q 355 856 347 869 q 356 829 363 842 q 226 590 297 722 q 97 322 156 458 q 70 235 78 276 q 65 166 63 193 q 81 132 68 139 q 117 149 93 125 q 150 192 131 161 q 190 258 169 222 q 228 327 210 293 q 257 381 246 361 q 273 393 264 393 q 290 386 282 393 q 301 368 297 379 q 300 347 304 357 q 271 276 289 318 q 229 191 253 233 q 178 113 206 149 q 121 64 150 78 q 71 58 94 51 q 24 83 43 65 q -7 125 6 100 q -30 253 -36 186 q 1 388 -24 321 q 49 508 22 446 q 106 629 75 569 q 167 744 136 689 q 229 846 199 800 z "},"y":{"ha":421,"x_min":-156,"x_max":419,"o":"m 324 556 q 356 583 339 576 q 388 587 374 590 q 411 572 403 583 q 417 544 419 560 q 397 469 413 514 q 367 389 382 425 q 268 127 317 258 q 149 -135 219 -4 q 97 -216 126 -176 q 25 -279 68 -256 q -62 -289 -19 -303 q -131 -233 -104 -275 q -153 -136 -156 -189 q -132 -37 -151 -83 q -88 22 -114 0 q -31 53 -62 43 q 37 61 0 63 q 115 53 74 60 q 138 108 125 76 q 165 172 151 139 q 192 235 179 204 q 218 290 206 267 q 176 263 201 278 q 125 239 151 247 q 72 233 99 231 q 24 256 44 235 q -10 331 -8 288 q 1 417 -12 375 q 22 471 10 442 q 50 528 33 500 q 88 582 67 557 q 136 624 110 607 q 171 633 154 635 q 198 622 188 631 q 213 600 208 613 q 214 578 218 588 q 172 504 197 542 q 128 433 146 467 q 92 344 97 375 q 101 304 88 313 q 140 308 114 296 q 194 347 165 319 q 233 392 217 367 q 263 446 249 418 q 292 502 278 474 q 324 556 307 531 m 94 -7 q 51 -12 74 -10 q 8 -24 29 -15 q -33 -49 -14 -32 q -65 -99 -51 -67 q -76 -154 -79 -132 q -57 -180 -72 -176 q -16 -162 -42 -183 q 42 -90 10 -142 q 69 -47 54 -69 q 94 -7 85 -24 z "},"W":{"ha":1275,"x_min":-10,"x_max":1476,"o":"m 1342 865 q 1403 891 1372 890 q 1455 875 1435 892 q 1476 828 1475 858 q 1446 764 1476 799 q 1342 627 1388 697 q 1253 485 1296 557 q 1167 339 1211 413 q 1068 192 1124 265 q 990 106 1032 144 q 897 40 949 67 q 800 28 849 15 q 728 94 751 40 q 711 192 708 140 q 676 142 693 168 q 641 93 660 117 q 600 48 622 69 q 549 11 578 26 q 498 -1 521 -3 q 458 15 475 1 q 429 51 440 28 q 415 100 418 74 q 417 219 406 160 q 451 338 428 279 q 503 451 474 396 q 563 556 533 507 q 588 598 572 572 q 619 651 603 624 q 652 703 636 678 q 679 744 668 729 q 517 713 593 732 q 374 665 440 693 q 249 597 307 636 q 142 504 192 558 q 103 443 121 482 q 82 369 85 404 q 100 313 79 335 q 179 303 121 292 q 263 343 218 311 q 344 418 307 375 q 403 510 381 461 q 424 600 426 558 q 432 631 424 618 q 451 646 440 643 q 474 642 463 649 q 489 614 485 635 q 492 506 499 561 q 464 397 485 450 q 410 299 443 344 q 333 222 376 253 q 244 174 293 192 q 142 168 194 157 q 55 215 89 179 q 7 301 21 251 q -2 421 -10 361 q 38 533 6 481 q 158 682 93 629 q 295 765 224 735 q 444 810 367 794 q 600 849 521 826 q 667 869 632 858 q 736 895 701 881 q 802 929 771 910 q 860 976 833 949 q 883 989 871 988 q 905 985 894 990 q 924 969 915 979 q 936 949 932 958 q 944 889 949 921 q 919 833 940 857 q 814 712 867 775 q 713 582 761 649 q 622 444 664 515 q 549 296 579 372 q 503 160 511 204 q 512 117 496 117 q 566 162 528 118 q 658 289 604 206 q 721 396 688 333 q 792 522 754 458 q 872 641 831 586 q 957 725 913 696 q 988 731 974 736 q 1010 713 1001 725 q 1022 685 1019 700 q 1019 663 1025 671 q 990 617 1007 642 q 953 565 972 592 q 917 514 935 539 q 889 467 900 489 q 829 333 854 404 q 797 188 804 263 q 808 129 793 142 q 849 128 824 117 q 907 171 875 139 q 968 246 939 203 q 1054 399 1014 314 q 1137 568 1094 483 q 1228 731 1179 653 q 1342 865 1278 808 z "},"o":{"ha":421,"x_min":-36,"x_max":471,"o":"m 428 406 q 449 413 439 418 q 464 393 458 407 q 470 363 469 379 q 464 336 471 346 q 371 267 426 288 q 257 253 315 246 q 198 185 232 219 q 127 132 164 150 q 55 119 90 114 q -8 169 19 124 q -35 265 -36 215 q -12 364 -33 315 q 43 456 8 413 q 114 529 78 499 q 141 572 124 550 q 179 613 158 594 q 225 645 200 632 q 276 660 250 658 q 319 645 303 660 q 343 608 335 631 q 353 560 351 586 q 354 514 356 535 q 339 428 351 471 q 308 343 326 385 q 372 363 340 347 q 428 406 403 378 m 242 353 q 247 358 246 350 q 251 372 249 365 q 274 420 261 392 q 296 478 286 449 q 310 533 306 507 q 308 572 314 558 q 278 585 300 590 q 231 550 257 581 q 186 482 199 514 q 177 425 174 450 q 198 381 181 400 q 242 353 215 363 m 90 229 q 134 249 110 233 q 174 279 158 264 q 126 311 146 288 q 100 375 107 335 q 83 338 94 364 q 63 286 71 313 q 60 242 56 260 q 90 229 64 224 z "},"e":{"ha":436,"x_min":-24,"x_max":486,"o":"m 440 389 q 459 398 450 401 q 474 385 468 394 q 483 363 481 375 q 482 342 486 350 q 433 265 467 306 q 354 188 399 224 q 260 126 310 151 q 162 94 210 100 q 72 107 114 88 q 3 181 29 126 q -19 253 -15 215 q -17 331 -24 292 q 4 406 -11 369 q 39 475 19 443 q 104 553 65 515 q 187 609 143 592 q 275 616 231 626 q 356 547 319 606 q 374 483 375 518 q 356 419 372 447 q 303 362 339 390 q 225 315 267 333 q 142 294 183 297 q 71 314 100 292 q 78 232 65 261 q 117 192 92 203 q 174 185 142 181 q 242 208 207 190 q 306 249 276 226 q 359 297 335 272 q 403 346 383 322 q 440 389 424 369 m 311 494 q 267 513 293 517 q 213 490 240 508 q 160 449 185 472 q 122 408 136 425 q 120 405 121 406 q 118 401 119 404 q 158 401 128 397 q 222 415 189 404 q 283 447 256 426 q 311 494 310 467 z "},"s":{"ha":422,"x_min":-174,"x_max":464,"o":"m 415 369 q 435 387 425 386 q 453 379 446 388 q 463 357 461 371 q 458 331 464 343 q 388 261 429 275 q 288 246 346 247 q 256 150 278 196 q 203 66 235 104 q 127 0 171 28 q 31 -42 83 -28 q -47 -51 -10 -51 q -114 -37 -85 -50 q -158 2 -143 -25 q -168 74 -174 29 q -126 163 -161 125 q -44 226 -92 200 q 59 267 4 251 q 160 292 114 283 q 140 305 151 300 q 115 313 128 310 q 46 337 76 322 q -2 375 15 351 q -20 432 -19 399 q 3 513 -21 465 q 55 580 22 550 q 126 633 88 610 q 208 672 165 656 q 293 696 251 688 q 342 701 318 701 q 385 692 365 700 q 406 674 397 686 q 417 649 414 663 q 417 622 421 635 q 400 600 413 608 q 346 587 379 593 q 277 572 313 581 q 208 554 242 564 q 151 533 174 544 q 117 508 132 524 q 99 476 103 493 q 105 441 94 458 q 146 410 115 424 q 185 393 164 401 q 227 373 207 385 q 263 346 247 361 q 285 307 279 331 q 314 309 296 306 q 351 320 332 313 q 387 340 369 328 q 415 369 404 353 m 183 236 q 109 224 153 236 q 23 192 65 213 q -52 146 -19 172 q -93 90 -85 119 q -87 46 -103 58 q -41 37 -71 33 q 26 58 -11 40 q 97 102 64 75 q 155 164 131 129 q 183 236 179 199 z "},"z":{"ha":458,"x_min":-74,"x_max":476,"o":"m 440 536 q 356 451 406 486 q 257 375 306 415 q 299 360 281 368 q 330 338 318 351 q 346 305 342 325 q 346 256 350 285 q 325 190 342 226 q 283 118 308 154 q 226 47 258 82 q 160 -16 194 13 q 91 -64 126 -44 q 24 -89 56 -83 q -31 -87 -10 -96 q -62 -60 -51 -78 q -73 -17 -72 -42 q -68 32 -74 7 q -31 115 -58 78 q 35 184 -3 153 q 117 242 72 215 q 204 292 161 268 q 171 324 179 303 q 174 381 158 354 q 214 431 189 407 q 306 503 258 469 q 401 585 354 538 q 397 603 419 606 q 318 572 375 601 q 176 474 243 532 q 61 342 110 417 q 32 317 49 321 q 3 321 15 314 q -17 342 -10 328 q -17 371 -24 356 q 57 478 10 431 q 160 571 104 525 q 210 609 182 589 q 269 647 238 629 q 333 676 300 664 q 394 689 365 688 q 451 675 433 690 q 473 636 469 660 q 467 585 476 613 q 440 536 457 558 m 86 33 q 143 85 110 53 q 203 151 176 118 q 241 213 229 185 q 232 254 253 242 q 213 242 221 249 q 193 229 204 235 q 154 205 176 221 q 109 169 132 189 q 65 128 86 150 q 28 86 44 107 q 1 35 6 57 q 5 4 -4 14 q 35 1 14 -6 q 86 33 56 7 z "},"Z":{"ha":1003,"x_min":-1,"x_max":1131,"o":"m 1064 1119 q 1095 1128 1081 1138 q 1119 1099 1110 1119 q 1130 1051 1129 1078 q 1119 1011 1131 1025 q 1095 982 1107 996 q 1068 956 1083 968 q 970 800 1028 875 q 860 650 913 725 q 896 633 875 644 q 910 611 907 626 q 912 580 914 596 q 901 551 910 564 q 879 535 893 538 q 831 533 856 531 q 781 539 806 536 q 720 458 750 499 q 661 378 690 418 q 613 313 638 346 q 561 249 588 281 q 644 182 600 196 q 729 181 688 168 q 808 226 771 193 q 871 301 844 260 q 898 317 883 322 q 923 294 913 311 q 937 254 933 276 q 932 219 940 232 q 884 157 911 189 q 824 100 857 125 q 753 61 792 75 q 671 54 714 47 q 581 104 618 63 q 517 211 544 146 q 460 153 492 185 q 394 92 429 121 q 324 39 360 63 q 254 6 288 15 q 198 -6 228 -3 q 139 -4 168 -8 q 83 13 110 0 q 38 50 57 26 q 6 113 14 79 q 3 182 -1 147 q 22 249 7 217 q 60 307 36 281 q 149 376 99 351 q 254 406 200 400 q 363 398 308 411 q 465 354 418 385 q 544 442 506 397 q 618 533 582 486 q 594 531 606 532 q 572 531 583 531 q 548 545 556 532 q 539 576 540 558 q 544 609 538 593 q 561 632 550 625 q 634 656 593 650 q 715 664 675 663 q 763 726 733 690 q 825 799 793 761 q 887 872 857 836 q 935 936 917 908 q 843 884 893 899 q 738 865 793 869 q 623 864 682 861 q 506 865 564 867 q 394 854 449 864 q 290 817 339 844 q 224 761 250 793 q 195 701 197 729 q 221 653 193 672 q 315 633 249 633 q 403 638 361 633 q 464 646 446 643 q 488 635 479 647 q 498 605 496 622 q 496 571 500 588 q 482 547 492 554 q 398 504 446 518 q 301 493 350 490 q 208 517 253 496 q 136 583 164 539 q 106 681 107 631 q 126 779 106 732 q 181 865 146 826 q 258 925 217 903 q 389 963 319 957 q 531 965 458 968 q 676 958 603 963 q 819 964 750 953 q 951 1010 889 975 q 1064 1119 1013 1044 m 119 236 q 98 193 103 213 q 102 162 93 174 q 135 150 111 150 q 199 165 158 150 q 258 194 226 176 q 319 229 289 211 q 373 264 349 247 q 410 292 397 281 q 320 328 365 325 q 235 317 275 331 q 164 279 194 303 q 119 236 133 256 z "},"a":{"ha":489,"x_min":-56,"x_max":528,"o":"m 479 364 q 496 385 486 381 q 513 385 506 389 q 524 370 521 381 q 524 349 528 360 q 467 229 500 292 q 386 125 433 167 q 336 99 364 106 q 284 101 308 93 q 244 133 260 110 q 231 197 228 157 q 156 130 197 151 q 76 110 115 108 q 6 137 38 113 q -39 207 -25 161 q -39 320 -56 261 q 16 432 -22 379 q 109 527 54 485 q 224 590 164 569 q 262 602 242 596 q 303 612 282 608 q 345 615 325 615 q 383 606 365 614 q 405 592 393 601 q 424 569 417 582 q 434 543 432 557 q 429 518 436 529 q 360 408 396 469 q 301 285 325 347 q 294 244 294 265 q 299 207 293 222 q 321 188 306 192 q 361 204 336 185 q 428 276 396 231 q 479 364 460 321 m 117 219 q 180 263 151 228 q 233 344 208 299 q 281 435 258 390 q 328 508 304 481 q 248 476 293 497 q 162 424 203 454 q 92 356 121 394 q 61 272 64 317 q 76 232 63 247 q 117 219 90 217 z "},"m":{"ha":810,"x_min":-71,"x_max":863,"o":"m 422 479 q 398 382 421 429 q 354 286 375 335 q 413 357 385 321 q 472 428 442 393 q 534 497 501 464 q 606 558 567 531 q 663 586 633 578 q 714 574 692 594 q 735 532 733 557 q 731 480 738 507 q 711 425 724 453 q 689 375 699 397 q 660 306 674 340 q 628 239 646 271 q 601 177 603 193 q 611 166 599 161 q 647 192 624 171 q 698 243 671 214 q 751 305 725 272 q 794 364 776 338 q 823 394 808 389 q 847 394 838 400 q 859 374 856 389 q 854 344 863 360 q 813 285 835 318 q 765 220 790 253 q 711 158 739 188 q 654 106 683 128 q 611 84 633 92 q 569 79 589 76 q 535 96 549 82 q 517 138 521 110 q 526 213 513 171 q 560 299 539 254 q 605 389 581 344 q 646 472 629 433 q 562 411 606 456 q 478 315 518 367 q 407 217 439 264 q 357 149 375 171 q 314 118 338 128 q 267 128 290 108 q 240 167 246 143 q 235 217 233 190 q 245 269 238 243 q 261 314 253 294 q 275 341 264 321 q 299 385 286 361 q 324 434 313 410 q 340 473 336 458 q 336 488 343 488 q 304 467 329 489 q 243 399 279 443 q 169 303 207 354 q 98 201 132 251 q 42 117 64 151 q 22 95 35 104 q -4 84 10 86 q -32 89 -18 82 q -54 115 -46 96 q -62 198 -71 156 q -40 281 -53 240 q 10 415 -21 350 q 81 544 42 481 q 98 572 89 557 q 118 599 107 586 q 142 622 129 613 q 171 633 154 631 q 212 617 196 636 q 226 583 228 599 q 216 546 225 565 q 194 506 207 526 q 170 468 182 486 q 150 433 158 450 l 143 419 q 222 499 179 460 q 311 563 264 538 q 358 575 336 576 q 394 560 379 574 q 416 526 408 547 q 422 479 424 504 z "},"A":{"ha":1174,"x_min":-7,"x_max":1396,"o":"m 1303 986 q 1335 995 1315 994 q 1369 988 1354 996 q 1390 965 1383 981 q 1382 922 1396 949 q 1334 842 1368 896 q 1256 714 1300 788 q 1164 552 1213 640 q 1073 372 1115 464 q 999 188 1031 279 q 958 15 968 96 q 940 -28 956 -12 q 905 -47 924 -44 q 869 -35 886 -49 q 849 8 853 -22 q 853 99 843 51 q 881 192 863 146 q 922 284 900 239 q 964 369 944 329 q 894 397 929 388 q 814 410 858 407 q 775 410 792 413 q 749 384 761 397 q 724 358 736 371 q 595 229 661 292 q 457 114 529 167 q 387 67 424 90 q 311 28 350 44 q 232 5 272 13 q 151 3 192 -3 q 58 42 93 11 q 8 117 24 72 q -6 214 -7 161 q 7 320 -6 267 q 40 423 19 374 q 83 510 60 472 q 178 627 124 574 q 297 721 233 681 q 360 756 326 739 q 431 783 394 772 q 503 795 467 793 q 571 786 539 797 q 628 741 610 772 q 647 672 646 710 q 634 596 649 635 q 593 529 619 557 q 458 417 535 467 q 301 343 381 367 q 275 349 283 339 q 265 376 267 360 q 271 409 264 393 q 292 432 278 425 q 358 467 321 446 q 433 513 396 488 q 501 567 469 538 q 549 628 532 596 q 543 629 546 628 q 525 636 539 633 q 436 627 482 643 q 351 592 390 611 q 256 530 303 568 q 172 444 208 492 q 113 342 135 396 q 90 233 90 289 q 103 180 90 201 q 137 147 115 158 q 185 133 158 136 q 242 138 213 131 q 369 193 310 153 q 481 278 428 233 q 535 324 508 301 q 589 371 561 347 q 569 404 569 378 q 579 446 568 431 q 654 498 608 481 q 749 522 700 515 q 1013 769 881 649 q 1303 986 1146 889 m 1025 478 q 1138 673 1079 576 q 1258 869 1197 769 q 1260 875 1258 874 q 1063 710 1156 800 q 881 524 969 619 q 956 508 919 519 q 1025 478 993 497 z "},"B":{"ha":974,"x_min":-18,"x_max":1039,"o":"m 1014 868 q 1033 763 1039 815 q 997 663 1026 710 q 922 576 968 615 q 821 513 875 538 q 865 469 847 494 q 893 413 883 443 q 902 351 903 383 q 892 288 901 318 q 829 188 874 235 q 726 104 785 142 q 597 40 667 67 q 456 3 526 14 q 321 -3 386 -8 q 206 28 256 3 q 129 95 156 53 q 100 186 103 138 q 119 281 97 235 q 186 361 140 328 l 165 361 q 54 399 100 365 q -6 489 8 433 q -1 615 -18 556 q 56 726 17 674 q 149 820 94 778 q 265 896 203 863 q 390 951 326 929 q 511 985 454 974 q 645 1001 569 996 q 793 997 721 1007 q 926 958 865 988 q 1014 868 986 928 m 764 278 q 805 332 788 301 q 810 394 822 363 q 755 458 793 438 q 670 484 717 478 q 576 486 624 490 q 493 478 529 482 q 478 448 486 463 q 464 418 471 433 q 496 413 479 417 q 528 406 513 410 q 553 384 546 401 q 558 348 560 367 q 544 317 556 329 q 511 308 532 304 q 465 315 488 314 q 419 315 443 315 q 401 260 410 288 q 374 211 392 233 q 355 198 365 199 q 336 203 344 197 q 322 220 328 210 q 317 240 317 231 q 320 271 318 256 q 328 301 322 286 q 285 292 307 301 q 244 269 263 283 q 213 238 226 256 q 194 204 199 221 q 195 161 188 178 q 221 135 203 144 q 265 122 239 125 q 322 118 292 118 q 555 160 443 121 q 764 278 667 199 m 914 714 q 943 797 950 758 q 878 860 936 836 q 761 888 825 881 q 628 891 697 896 q 488 869 558 886 q 353 825 418 853 q 232 758 288 797 q 138 672 176 719 q 112 638 126 658 q 87 596 97 618 q 72 551 76 574 q 79 511 68 529 q 108 486 89 494 q 149 475 126 478 q 193 474 171 472 q 232 478 215 475 q 315 508 276 486 q 385 560 354 531 q 430 622 414 589 q 460 693 446 656 q 474 710 465 707 q 492 708 483 713 q 507 693 500 703 q 515 674 514 683 q 519 680 517 676 q 522 688 521 683 q 565 755 543 718 q 619 814 588 792 q 647 820 635 825 q 665 803 658 815 q 672 775 671 790 q 669 751 674 760 q 627 683 654 715 q 578 618 600 651 q 566 602 571 611 q 556 586 561 593 q 654 587 604 582 q 751 607 704 592 q 840 649 799 622 q 914 714 882 675 z "},"C":{"ha":750,"x_min":-17,"x_max":869,"o":"m 517 786 q 544 786 533 796 q 559 759 554 776 q 563 722 564 742 q 557 694 563 703 q 515 636 536 665 q 476 575 494 607 q 473 531 457 539 q 524 535 489 524 q 590 564 554 544 q 658 609 625 583 q 717 665 690 635 q 760 729 744 696 q 778 806 781 775 q 756 853 775 836 q 706 875 736 869 q 640 879 675 881 q 572 870 606 878 q 511 853 538 863 q 305 733 397 811 q 151 554 213 656 q 108 466 128 514 q 82 367 89 418 q 85 267 75 317 q 132 176 96 218 q 204 133 163 142 q 292 133 246 124 q 386 165 339 142 q 476 218 433 189 q 551 278 518 247 q 603 333 585 308 q 618 344 610 343 q 635 340 626 344 q 649 329 643 336 q 660 315 656 322 q 667 272 671 294 q 646 233 663 249 q 578 161 614 196 q 503 99 543 126 q 417 51 463 71 q 321 24 372 32 q 156 50 232 13 q 36 163 79 88 q -12 317 -7 236 q 8 478 -17 397 q 82 635 33 558 q 194 778 131 713 q 329 892 257 843 q 472 968 401 942 q 552 992 508 982 q 640 1002 596 1001 q 725 992 683 1003 q 800 954 767 981 q 856 872 843 918 q 861 778 869 826 q 826 682 853 731 q 765 590 800 633 q 691 513 731 547 q 615 460 651 479 q 548 431 585 443 q 477 421 511 419 q 415 440 443 422 q 375 499 388 457 q 372 580 364 538 q 401 662 381 622 q 453 734 422 701 q 517 786 483 767 z "},"D":{"ha":925,"x_min":-8,"x_max":910,"o":"m 824 850 q 896 699 882 781 q 892 535 910 617 q 832 375 874 453 q 736 235 790 297 q 617 124 686 176 q 466 40 547 72 q 299 1 385 7 q 129 31 213 -4 q 63 72 92 47 q 18 129 35 97 q -3 197 1 161 q 3 269 -8 232 q 77 354 21 333 q 208 369 133 375 q 230 415 221 392 q 254 463 239 439 q 181 461 217 456 q 113 483 144 467 q 59 525 82 499 q 28 589 36 551 q 28 681 17 636 q 64 765 39 725 q 124 840 89 806 q 200 900 160 875 q 358 967 272 944 q 528 986 443 990 q 690 949 613 982 q 824 850 767 917 m 728 407 q 776 481 753 442 q 812 560 799 519 q 826 642 825 601 q 808 718 826 682 q 748 791 786 763 q 661 834 710 819 q 558 851 613 849 q 449 845 503 853 q 344 822 394 838 q 257 783 294 806 q 220 758 243 775 q 175 719 197 740 q 138 676 153 699 q 126 633 124 653 q 159 607 132 614 q 219 599 186 600 q 285 601 253 599 q 332 604 317 604 l 338 604 q 414 702 374 654 q 499 794 454 750 q 536 814 514 810 q 553 809 547 815 q 562 793 560 803 q 563 773 564 783 q 561 757 563 763 q 543 730 558 750 q 509 687 528 710 q 472 642 490 664 q 447 611 454 621 q 365 489 406 553 q 292 351 324 425 q 347 324 322 340 q 388 288 372 308 q 394 269 392 282 q 393 245 396 257 q 383 226 390 233 q 363 224 376 218 q 314 249 336 233 q 264 272 292 264 q 251 246 258 258 q 233 224 244 233 q 215 215 224 213 q 199 225 206 217 q 188 244 192 233 q 183 261 183 254 l 183 282 q 152 281 171 283 q 116 270 133 278 q 88 251 99 263 q 78 225 76 240 q 114 172 83 189 q 184 148 144 154 q 265 143 224 142 q 332 149 306 144 q 449 183 393 158 q 556 243 506 208 q 650 319 607 278 q 728 407 693 361 z "},"E":{"ha":731,"x_min":-8,"x_max":921,"o":"m 833 947 q 901 878 881 924 q 907 782 921 832 q 853 694 894 735 q 758 626 813 654 q 640 584 703 599 q 521 574 578 569 q 389 604 453 579 q 267 665 325 629 q 248 608 246 632 q 266 569 250 585 q 308 544 282 553 q 365 531 335 535 q 425 528 396 528 q 476 532 454 529 q 506 510 496 533 q 514 467 517 493 q 493 436 511 442 q 330 391 413 414 q 175 326 247 368 q 94 254 114 293 q 87 183 74 215 q 143 131 100 150 q 251 117 186 111 q 392 159 326 124 q 518 254 458 194 q 567 313 546 282 q 615 371 588 343 q 640 378 629 383 q 656 360 650 372 q 665 332 663 347 q 663 308 667 317 q 614 224 644 264 q 544 151 583 185 q 462 90 506 118 q 374 44 418 63 q 288 20 333 29 q 198 13 243 11 q 112 31 153 15 q 40 82 71 47 q 1 160 10 117 q -1 246 -8 203 q 31 328 7 289 q 88 396 54 368 q 158 440 115 419 q 236 476 200 461 q 190 525 208 494 q 165 591 172 556 q 164 662 158 626 q 189 722 169 697 q 132 788 157 754 q 125 813 125 797 q 131 841 125 829 q 147 856 136 853 q 171 846 157 860 q 231 786 199 814 q 303 851 261 822 q 392 902 344 881 q 488 939 439 924 q 582 963 536 954 q 710 975 643 974 q 833 947 776 976 m 322 726 q 442 685 378 697 q 569 679 506 674 q 694 708 633 685 q 808 771 756 731 q 838 805 828 788 q 829 835 849 822 q 795 850 814 846 q 757 857 776 854 q 644 856 703 863 q 530 833 586 850 q 420 788 474 815 q 322 726 367 761 z "},"d":{"ha":604,"x_min":-10,"x_max":668,"o":"m 663 746 q 535 531 594 635 q 431 307 476 428 q 402 213 413 254 q 393 149 392 171 q 408 128 394 126 q 450 165 421 131 q 488 215 467 186 q 529 275 508 244 q 568 332 550 306 q 597 374 586 358 q 622 392 610 389 q 642 390 633 394 q 653 376 650 385 q 651 360 656 367 q 615 293 638 335 q 564 208 592 251 q 504 126 536 165 q 442 65 472 86 q 385 53 414 46 q 338 83 357 60 q 303 183 297 128 q 333 303 310 238 q 297 251 317 282 q 253 190 276 221 q 206 135 231 160 q 154 100 181 110 q 88 94 115 86 q 40 124 60 101 q 10 180 21 147 q -5 248 0 213 q -9 317 -10 283 q -4 374 -8 350 q 47 493 8 439 q 140 572 86 547 q 259 585 194 597 q 389 503 324 572 q 446 591 422 553 q 490 663 469 629 q 533 731 511 697 q 582 806 554 764 q 612 817 596 819 q 641 802 628 814 q 661 774 654 790 q 663 746 668 758 m 165 429 q 101 339 121 385 q 84 261 82 293 q 109 221 86 229 q 174 244 132 213 q 269 343 226 286 q 356 456 313 400 q 258 476 310 483 q 165 429 206 469 z "},"b":{"ha":454,"x_min":-106,"x_max":483,"o":"m 451 363 q 464 376 457 376 q 476 366 471 375 q 482 343 481 357 q 476 318 483 329 q 407 240 453 278 q 301 183 361 201 q 260 130 282 156 q 215 85 239 104 q 157 56 188 64 q 98 51 126 47 q 45 69 69 54 q 6 108 21 83 q -8 92 -1 100 q -21 76 -14 83 q -49 65 -35 64 q -76 73 -64 65 q -97 91 -89 81 q -106 110 -106 101 q -92 140 -101 121 q -78 174 -83 158 q -17 335 -47 257 q 44 492 13 414 q 111 649 76 569 q 183 811 146 728 q 211 832 192 828 q 250 831 231 836 q 282 813 269 826 q 289 781 294 799 q 264 714 279 754 q 229 626 249 674 q 186 525 210 578 q 138 421 163 472 q 184 460 157 435 q 241 507 211 486 q 301 537 271 528 q 356 525 331 546 q 385 471 379 503 q 387 403 392 439 q 370 333 382 368 q 347 271 358 297 q 413 313 383 289 q 451 363 442 338 m 40 174 q 115 166 76 149 q 188 222 153 183 q 253 310 224 261 q 300 399 282 360 q 314 433 308 415 q 317 463 319 451 q 303 474 315 475 q 261 453 290 474 q 199 395 233 433 q 133 315 165 357 q 75 235 100 274 q 40 174 50 196 z "},"f":{"ha":388,"x_min":-54,"x_max":328,"o":"m 321 725 q 230 589 281 661 q 143 450 179 517 q 174 433 156 438 q 211 428 192 428 q 250 433 231 429 q 283 442 269 438 q 311 433 300 446 q 325 403 322 421 q 324 369 328 386 q 307 347 319 351 q 242 336 275 339 q 176 332 208 333 q 182 181 188 257 q 149 42 176 104 q 132 7 142 25 q 109 -26 122 -11 q 79 -48 96 -40 q 40 -51 63 -56 q 7 -35 21 -47 q -17 -6 -7 -22 q -33 28 -26 10 q -42 64 -39 47 q -41 211 -54 139 q -1 350 -28 283 q -11 372 -8 358 q -12 397 -14 385 q -6 417 -11 408 q 10 426 0 425 q 20 428 15 428 q 32 431 25 429 q 34 437 33 433 q 38 443 35 440 q 132 623 79 535 q 247 789 185 711 q 275 799 260 803 q 303 782 290 794 q 322 752 315 769 q 321 725 328 735 m 33 125 q 33 83 31 106 q 40 46 35 60 q 56 34 46 32 q 79 67 65 36 q 112 191 103 118 q 114 329 121 264 l 86 329 q 53 233 68 282 q 33 125 39 183 z "},"g":{"ha":453,"x_min":-128,"x_max":489,"o":"m 435 667 q 463 666 451 671 q 481 653 475 661 q 488 633 488 644 q 485 613 489 622 q 450 545 469 582 q 411 472 431 508 q 355 355 381 415 q 303 234 329 294 q 246 113 276 174 q 176 -4 215 53 q 110 -86 147 -46 q 25 -144 74 -126 q -62 -147 -28 -165 q -112 -92 -96 -129 q -126 -8 -128 -56 q -103 76 -124 39 q -52 135 -85 113 q 17 165 -19 157 q 88 168 53 174 q 146 142 122 163 q 147 142 147 140 q 147 144 146 143 q 181 201 161 167 q 217 273 200 236 q 249 342 235 310 q 268 392 264 374 q 223 351 251 379 q 163 297 194 324 q 99 256 131 271 q 44 254 67 240 q 6 299 17 269 q -6 357 -6 328 q 15 453 -7 406 q 69 538 36 500 q 130 590 93 564 q 208 631 167 617 q 292 642 250 646 q 368 608 335 639 q 397 646 381 629 q 435 667 413 663 m 125 106 q 75 121 104 121 q 19 109 46 121 q -27 74 -8 97 q -47 21 -46 51 q -37 -11 -49 1 q -1 -17 -26 -24 q 24 -3 8 -14 q 58 25 40 8 q 92 63 75 42 q 125 106 110 83 m 101 399 q 90 335 76 350 q 149 360 104 319 q 199 410 171 381 q 255 468 228 439 q 303 522 282 497 q 331 560 324 547 q 243 544 278 560 q 183 504 208 528 q 133 449 154 476 q 101 399 113 422 z "},"j":{"ha":454,"x_min":-87,"x_max":438,"o":"m 319 646 q 385 594 365 631 q 406 506 406 557 q 391 395 407 456 q 349 272 375 335 q 292 147 324 208 q 228 34 260 86 q 167 -58 196 -18 q 118 -117 138 -97 q 83 -147 103 -132 q 41 -170 63 -162 q -2 -176 19 -178 q -44 -154 -24 -174 q -78 -99 -69 -132 q -85 -29 -87 -65 q -70 42 -82 7 q -42 103 -58 76 q 13 171 -19 139 q 84 226 46 203 q 165 261 122 249 q 251 272 208 274 q 290 349 269 306 q 320 432 310 393 q 326 499 331 471 q 290 528 321 526 q 216 508 253 529 q 147 456 179 488 q 88 385 114 424 q 43 315 61 347 q 17 299 32 300 q -10 311 3 299 q -24 347 -22 326 q -19 386 -25 368 q 28 479 -7 428 q 113 574 64 531 q 215 640 161 617 q 319 646 269 663 m 233 224 q 163 208 199 224 q 96 166 128 192 q 38 108 64 140 q -1 42 13 75 q -15 -12 -17 8 q 1 -37 -14 -33 q 45 -23 17 -42 q 108 42 74 -4 q 142 89 125 64 q 176 139 160 114 q 208 186 193 164 q 233 224 222 208 m 415 760 q 431 744 426 754 q 437 721 436 733 q 434 696 438 708 q 424 674 431 683 q 396 655 413 658 q 363 658 379 651 q 336 678 347 664 q 326 714 325 693 q 336 735 326 724 q 359 753 346 746 q 388 764 372 761 q 415 760 403 767 z "},"k":{"ha":428,"x_min":-154,"x_max":461,"o":"m 419 367 q 438 385 429 382 q 451 383 446 388 q 459 371 457 379 q 458 356 461 363 q 437 306 453 338 q 398 241 421 275 q 347 173 375 207 q 292 117 319 139 q 249 93 271 100 q 206 90 226 86 q 170 111 186 94 q 146 157 154 128 q 128 241 133 197 q 106 329 122 285 q 45 208 75 268 q -11 85 15 149 q -27 51 -18 67 q -48 28 -36 36 q -76 19 -60 19 q -115 31 -93 18 q -149 69 -144 47 q -136 124 -154 90 q -45 298 -90 204 q 44 483 0 392 q 128 657 88 575 q 206 797 169 739 q 218 813 213 806 q 233 828 224 821 q 274 831 249 838 q 314 811 299 825 q 322 776 329 796 q 306 738 315 757 q 233 600 269 665 q 168 461 196 535 q 234 485 203 471 q 301 519 265 499 q 332 540 318 529 q 365 558 346 551 q 391 554 382 563 q 403 532 400 546 q 403 502 406 518 q 394 476 400 486 q 351 436 378 453 q 292 409 324 419 q 228 396 261 399 q 171 396 196 393 q 194 302 183 349 q 217 206 206 256 q 236 168 222 182 q 279 175 250 154 q 315 210 296 186 q 353 263 335 235 q 390 319 372 292 q 419 367 407 347 z "},"n":{"ha":479,"x_min":-96,"x_max":531,"o":"m 519 372 q 530 342 531 360 q 522 310 529 324 q 476 228 500 268 q 424 153 453 189 q 397 122 413 139 q 365 90 382 106 q 328 65 347 75 q 289 56 308 56 q 257 67 269 56 q 238 93 244 78 q 228 126 231 108 q 228 160 226 144 q 248 247 231 204 q 286 325 265 289 q 334 400 308 364 q 381 476 360 436 q 266 406 319 453 q 165 302 213 360 q 72 183 117 244 q -14 71 28 122 q -43 63 -25 57 q -74 83 -61 69 q -91 147 -96 110 q -75 218 -86 185 q -35 322 -56 275 q 9 413 -14 368 q 60 506 32 458 q 122 613 88 554 q 167 652 142 647 q 213 646 193 657 q 244 613 233 635 q 243 575 254 592 q 216 535 229 554 q 192 496 203 515 q 147 424 171 460 q 104 351 124 389 q 139 392 110 363 q 207 454 168 421 q 290 518 246 488 q 372 565 335 549 q 435 574 410 581 q 463 528 461 568 q 458 490 464 508 q 442 452 451 471 q 421 417 432 433 q 400 385 410 400 q 342 288 372 336 q 292 183 311 239 q 288 156 286 168 q 304 146 289 143 q 353 177 326 149 q 403 242 379 206 q 447 315 428 278 q 478 371 467 351 q 498 385 485 386 q 519 372 511 383 z "},"p":{"ha":381,"x_min":-211,"x_max":414,"o":"m 378 365 q 395 376 388 375 q 408 374 403 378 q 413 360 413 369 q 408 343 414 351 q 383 310 400 328 q 344 278 365 293 q 301 253 324 264 q 257 242 278 243 q 208 186 236 213 q 150 147 181 160 q 88 140 119 133 q 29 186 56 147 q 3 134 19 168 q -33 62 -14 100 q -70 -12 -51 24 q -101 -68 -89 -47 q -133 -93 -112 -86 q -175 -92 -153 -100 q -208 -51 -206 -81 q -199 7 -211 -21 q -124 154 -164 82 q -42 299 -83 226 q 38 447 -1 372 q 111 600 78 521 q 119 619 115 610 q 126 640 122 629 q 143 658 132 657 q 165 653 154 660 q 184 633 176 646 q 192 611 192 621 q 185 574 192 593 q 175 538 178 554 q 234 577 203 558 q 306 586 265 596 q 349 538 340 572 q 351 463 357 503 q 328 382 344 422 q 300 317 313 342 q 342 336 319 324 q 378 365 364 349 m 282 446 q 290 494 292 474 q 264 507 289 515 q 217 483 240 500 q 172 442 193 465 q 134 394 151 419 q 104 347 117 369 q 153 322 126 332 q 207 308 179 313 q 282 446 253 368 m 78 286 q 69 250 67 263 q 83 233 72 238 q 109 234 93 229 q 142 250 125 239 q 109 265 125 257 q 78 286 93 274 z "},"q":{"ha":556,"x_min":-14,"x_max":589,"o":"m 547 368 q 569 373 560 375 q 584 365 579 371 q 588 350 589 358 q 579 338 588 342 q 529 306 563 328 q 453 255 496 285 q 366 189 411 225 q 281 113 321 153 q 210 33 240 74 q 171 -47 181 -8 q 166 -83 165 -64 q 167 -121 167 -103 q 153 -142 167 -135 q 122 -144 139 -149 q 91 -124 106 -140 q 76 -75 76 -107 q 101 28 78 -28 q 153 141 124 85 q 215 248 183 197 q 267 333 246 299 q 261 331 261 331 q 204 290 233 311 q 146 251 175 269 q 81 231 115 235 q 19 254 47 228 q -11 320 -8 281 q -7 396 -14 360 q 26 471 1 436 q 86 531 51 506 q 161 570 121 557 q 240 580 201 583 q 312 554 278 576 q 368 486 346 532 q 370 489 369 488 q 372 492 371 490 q 401 530 388 511 q 431 568 415 549 q 456 603 443 585 q 490 628 469 621 q 532 619 518 635 q 553 581 546 603 q 534 514 560 558 q 469 416 508 469 q 387 309 429 363 q 319 214 344 256 q 334 223 318 213 q 374 250 350 233 q 428 287 399 267 q 482 324 457 307 q 526 354 507 342 q 547 368 544 367 m 318 476 q 268 497 299 497 q 206 483 238 496 q 145 449 174 469 q 101 413 117 429 q 73 367 85 393 q 64 323 61 340 q 86 305 67 306 q 151 336 106 304 q 192 368 168 349 q 239 408 215 388 q 284 447 263 428 q 318 476 306 465 z "},"r":{"ha":393,"x_min":-71,"x_max":431,"o":"m 389 367 q 413 380 403 379 q 426 376 422 381 q 429 361 431 371 q 419 343 428 351 q 383 301 406 328 q 334 251 360 275 q 282 212 308 226 q 235 206 256 197 q 201 229 213 213 q 186 266 189 246 q 187 308 183 286 q 199 347 190 331 q 229 394 207 364 q 271 454 251 424 q 294 506 292 486 q 288 531 297 526 q 260 525 279 536 q 217 482 242 514 q 165 404 192 450 q 112 310 138 358 q 64 213 86 261 q 28 128 42 165 q 22 113 25 121 q 14 99 18 106 q -8 82 4 85 q -33 83 -21 79 q -53 98 -44 88 q -65 124 -62 108 q -58 208 -71 154 q -24 322 -46 261 q 27 444 -1 383 q 81 553 56 506 q 101 581 90 568 q 129 599 113 594 q 169 583 156 607 q 158 511 183 558 q 217 567 186 544 q 278 600 249 590 q 331 603 307 610 q 367 572 354 597 q 377 524 379 549 q 365 476 375 500 q 342 431 356 453 q 317 389 328 408 q 273 301 282 331 q 276 272 264 272 q 317 295 288 271 q 389 367 347 319 z "},"t":{"ha":246,"x_min":-36,"x_max":649,"o":"m 635 832 q 645 826 642 832 q 649 812 649 819 q 646 798 649 804 q 636 792 643 792 q 478 787 557 785 q 319 788 399 789 l 310 788 q 185 546 243 669 q 94 282 126 422 q 85 165 75 192 q 122 156 96 138 q 183 232 149 175 q 244 368 217 289 q 257 382 249 378 q 274 384 265 386 q 288 375 282 382 q 292 358 293 368 q 266 294 281 326 q 235 231 251 261 q 201 173 218 200 q 168 125 185 146 q 132 90 153 106 q 88 67 111 74 q 40 68 64 61 q -1 101 17 75 q -35 210 -36 150 q -19 332 -35 269 q 59 553 11 444 q 169 785 107 663 q 87 784 128 783 q 4 788 46 785 q -4 794 -1 788 q -7 807 -7 800 q -5 820 -7 814 q 3 826 -3 826 q 99 831 51 831 q 196 832 147 832 q 197 835 196 832 q 236 901 218 874 q 281 956 254 928 q 318 977 299 975 q 353 972 338 979 q 376 950 368 964 q 382 922 385 936 q 372 900 379 913 q 358 875 365 888 q 343 851 350 863 q 332 831 336 839 q 483 834 407 832 q 635 832 560 836 z "},"v":{"ha":449,"x_min":-24,"x_max":489,"o":"m 446 381 q 468 388 458 390 q 483 377 478 386 q 488 357 489 368 q 479 338 488 346 q 425 290 457 311 q 356 276 393 268 q 318 295 333 281 q 294 329 303 310 q 273 291 283 310 q 251 253 263 272 q 215 202 239 233 q 160 143 190 171 q 97 100 129 115 q 36 99 65 85 q -8 149 4 115 q -22 224 -21 183 q -17 303 -24 264 q -4 369 -11 343 q 28 490 11 428 q 76 610 46 551 q 90 631 83 621 q 104 650 96 640 q 130 663 117 664 q 153 651 143 661 q 168 629 163 642 q 172 607 174 617 q 163 577 169 593 q 151 546 157 561 q 138 512 150 542 q 112 440 126 482 q 82 353 97 399 q 60 272 67 307 q 55 233 54 249 q 64 215 56 218 q 85 221 74 214 q 108 240 96 228 q 131 267 119 251 q 154 301 143 283 q 201 382 179 340 q 243 467 222 424 q 287 553 264 510 q 339 639 310 596 q 366 656 351 658 q 392 642 381 654 q 410 612 404 629 q 414 586 417 594 q 401 544 410 568 q 381 496 392 521 q 358 448 369 471 q 336 407 346 425 q 346 356 336 371 q 371 340 356 340 q 406 350 386 339 q 446 381 425 361 z "},"w":{"ha":549,"x_min":-60,"x_max":588,"o":"m 542 358 q 558 378 550 374 q 574 381 567 383 q 584 371 581 379 q 586 351 588 363 q 565 311 583 339 q 521 258 547 283 q 462 220 494 233 q 397 224 429 207 q 347 147 375 183 q 279 90 318 110 q 226 85 247 75 q 193 117 206 94 q 176 169 181 140 q 174 219 172 197 q 115 144 146 179 q 54 90 83 108 q -1 78 25 72 q -43 125 -26 83 q -51 218 -60 164 q -21 330 -42 272 q 26 442 0 388 q 69 535 51 497 q 97 588 83 563 q 125 628 111 613 q 145 638 133 638 q 166 631 157 638 q 181 616 175 625 q 186 600 188 607 q 172 564 182 585 q 156 525 163 543 q 132 469 143 494 q 110 418 121 443 q 88 367 99 393 q 65 308 78 340 q 42 228 43 250 q 50 206 40 206 q 77 224 60 207 q 111 264 94 242 q 165 358 142 307 q 225 454 188 410 q 250 468 236 467 q 276 463 264 469 q 294 443 288 456 q 299 417 301 431 q 281 353 292 386 q 260 289 271 321 q 238 203 239 229 q 249 174 238 176 q 280 190 261 172 q 318 236 299 208 q 370 333 346 279 q 415 438 394 386 q 451 535 435 490 q 478 604 467 579 q 501 619 486 618 q 528 614 515 621 q 548 592 540 607 q 551 560 556 578 q 528 498 543 535 q 494 422 513 461 q 455 342 475 382 q 418 272 435 303 q 452 271 435 265 q 486 290 469 276 q 517 322 503 304 q 542 358 532 340 z "},"x":{"ha":474,"x_min":-37,"x_max":517,"o":"m 478 374 q 491 383 483 382 q 505 379 499 383 q 514 368 511 375 q 514 357 517 361 q 486 313 507 346 q 437 240 465 279 q 374 162 408 200 q 306 103 339 124 q 248 88 274 83 q 203 111 222 92 q 172 160 183 131 q 158 224 160 190 q 119 174 135 197 q 89 126 104 150 q 72 115 82 114 q 53 125 61 117 q 40 145 44 133 q 39 164 35 157 q 100 258 64 213 q 176 342 136 304 q 228 465 203 413 q 276 578 254 518 q 283 630 296 625 q 213 585 269 635 q 161 527 186 561 q 114 458 136 493 q 76 390 92 422 q 51 335 60 357 q 27 310 43 314 q -3 314 11 307 q -28 335 -18 321 q -32 364 -37 349 q 32 506 -8 439 q 135 625 72 572 q 214 680 171 657 q 297 696 257 703 q 330 679 318 692 q 348 649 342 667 q 356 613 354 632 q 354 576 357 593 q 335 503 350 539 q 306 433 321 468 q 351 463 328 449 q 397 488 374 476 q 417 485 410 493 q 428 463 425 476 q 428 437 431 450 q 418 418 426 424 q 333 360 375 388 q 253 299 292 332 q 252 296 253 297 q 251 293 251 294 q 244 237 244 265 q 254 190 244 208 q 285 172 264 172 q 340 199 306 171 q 384 241 363 215 q 424 293 406 267 q 457 342 443 319 q 478 374 471 364 z "},"c":{"ha":436,"x_min":-24,"x_max":486,"o":"m 157 444 q 111 379 131 415 q 82 307 92 343 q 75 240 72 271 q 96 192 78 210 q 149 177 114 175 q 242 208 185 179 q 306 249 276 226 q 359 297 335 272 q 403 346 383 322 q 440 389 424 369 q 459 398 450 401 q 474 385 468 394 q 483 363 481 375 q 482 342 486 350 q 433 265 467 306 q 354 188 399 224 q 260 126 310 151 q 162 94 210 100 q 72 107 114 88 q 3 181 29 126 q -19 253 -15 215 q -17 331 -24 292 q 4 406 -11 369 q 39 475 19 443 q 101 551 65 515 q 178 602 136 586 q 265 608 219 618 q 356 547 310 597 q 372 497 374 526 q 357 438 371 467 q 322 388 343 410 q 278 364 300 367 q 247 367 265 361 q 206 388 229 372 q 292 473 271 435 q 303 525 314 511 q 252 522 292 539 q 157 444 213 506 z "},"S":{"ha":875,"x_min":-4,"x_max":1186,"o":"m 978 1061 q 1059 1067 1019 1075 q 1128 1034 1099 1058 q 1172 972 1157 1010 q 1179 892 1186 935 q 1151 810 1174 850 q 1096 738 1128 771 q 1026 678 1064 704 q 951 635 988 651 q 914 640 928 625 q 896 681 900 656 q 899 731 892 706 q 925 768 906 757 q 977 799 951 782 q 1026 838 1003 815 q 1057 867 1043 851 q 1077 898 1071 883 q 1081 924 1083 913 q 1063 939 1078 935 q 1013 939 1038 946 q 967 917 989 932 q 871 819 908 881 q 808 685 833 757 q 766 538 783 614 q 729 399 749 463 q 644 203 699 294 q 499 50 590 111 q 314 -6 413 -6 q 132 56 215 -7 q 42 158 74 99 q 3 284 11 218 q 8 420 -4 350 q 49 556 21 490 q 117 677 76 621 q 206 774 157 733 q 284 826 239 800 q 376 865 329 853 q 469 867 424 876 q 547 814 514 857 q 583 733 575 778 q 588 641 592 688 q 568 549 583 594 q 532 467 553 504 q 484 397 517 439 q 410 322 451 356 q 322 273 368 289 q 238 279 276 257 q 183 346 199 301 q 169 433 167 390 q 202 530 174 488 q 268 608 231 572 q 301 614 285 624 q 324 588 317 604 q 328 543 332 565 q 311 506 325 521 q 288 477 304 496 q 263 440 272 458 q 257 406 254 421 q 290 392 260 392 q 335 402 313 392 q 379 428 358 413 q 418 463 400 444 q 449 499 436 482 q 495 573 476 532 q 518 658 514 614 q 494 748 524 714 q 406 768 465 782 q 328 735 365 758 q 257 682 290 713 q 196 616 224 651 q 149 547 168 581 q 112 469 128 511 q 90 382 96 426 q 91 294 83 338 q 124 214 99 251 q 185 156 149 178 q 261 125 221 133 q 344 122 301 117 q 424 144 386 126 q 499 194 465 165 q 558 260 532 224 q 603 336 583 296 q 638 418 622 376 q 667 512 654 464 q 692 607 679 560 q 719 702 704 654 q 753 796 733 750 q 790 876 768 835 q 839 953 811 917 q 901 1018 867 989 q 978 1061 936 1047 z "},"R":{"ha":1178,"x_min":-1,"x_max":1197,"o":"m 896 307 q 786 281 843 289 q 671 283 729 274 q 694 255 683 268 q 717 228 706 242 q 822 139 767 175 q 956 93 878 103 q 990 96 972 93 q 1024 101 1007 99 q 1056 101 1040 103 q 1088 89 1072 99 q 1103 69 1099 82 q 1108 41 1108 56 q 1105 12 1108 26 q 1097 -12 1101 -3 q 1065 -50 1085 -37 q 1019 -66 1044 -62 q 966 -65 994 -69 q 910 -53 938 -61 q 801 1 860 -37 q 694 90 743 39 q 613 200 646 140 q 579 319 579 260 q 574 322 579 319 q 533 235 556 278 q 482 154 511 193 q 405 80 450 113 q 310 31 360 47 q 208 18 260 14 q 108 56 156 22 q 30 147 56 92 q 1 263 4 201 q 15 387 -1 325 q 60 497 31 449 q 131 583 89 546 q 222 643 172 621 q 268 660 243 653 q 319 669 293 667 q 370 665 346 671 q 415 643 394 660 q 446 601 438 625 q 452 552 454 578 q 439 502 450 526 q 411 458 428 478 q 321 378 371 414 q 217 318 271 342 q 198 322 206 314 q 187 342 190 329 q 185 367 183 354 q 196 385 188 379 q 251 428 225 406 q 301 474 276 450 q 346 526 335 507 q 352 552 357 544 q 331 559 347 560 q 292 551 314 558 q 247 533 271 544 q 207 511 224 522 q 153 460 179 492 q 107 390 126 428 q 81 297 82 340 q 94 222 79 254 q 138 168 108 189 q 203 142 167 147 q 280 148 239 136 q 360 192 321 160 q 433 274 401 226 q 485 367 465 321 q 526 473 507 418 q 568 581 546 528 q 619 682 590 633 q 690 771 649 731 q 726 776 708 786 q 750 747 743 767 q 756 700 758 725 q 738 656 753 675 q 674 560 700 611 q 628 457 649 510 q 705 431 657 435 q 807 439 753 428 q 915 474 861 450 q 1011 531 969 497 q 1079 611 1060 568 q 1090 695 1099 654 q 1049 771 1082 736 q 957 828 1015 806 q 830 854 897 850 q 694 848 763 858 q 560 814 625 838 q 439 757 494 790 q 397 731 418 746 q 351 710 375 717 q 324 714 338 706 q 301 735 310 722 q 288 764 292 749 q 292 788 285 779 q 376 854 318 819 q 507 917 433 889 q 662 961 581 944 q 814 974 743 978 q 979 938 901 969 q 1109 851 1057 906 q 1179 720 1161 796 q 1167 553 1197 644 q 1060 397 1135 458 q 896 307 985 336 z "},"Q":{"ha":875,"x_min":3,"x_max":888,"o":"m 769 121 q 786 101 781 115 q 790 72 792 88 q 781 42 789 57 q 758 22 774 28 q 690 16 725 10 q 622 39 656 22 q 559 76 589 56 q 506 114 529 97 q 492 107 499 111 q 478 100 486 103 q 379 53 432 72 q 274 26 326 33 q 173 27 222 18 q 85 68 124 36 q 28 140 47 97 q 6 233 10 183 q 13 333 3 282 q 46 429 24 383 q 53 445 49 436 q 61 461 57 454 q 78 595 57 529 q 138 719 99 661 q 233 826 178 778 q 351 909 288 875 q 482 960 414 943 q 617 974 550 978 q 766 924 700 967 q 860 803 832 882 q 874 636 888 722 q 820 468 860 550 q 723 314 781 386 q 606 190 665 242 q 649 165 625 175 q 696 144 672 154 q 735 135 715 138 q 769 121 754 132 m 603 853 q 478 838 543 856 q 355 788 414 821 q 247 706 296 754 q 169 599 199 657 q 269 681 215 643 q 381 753 324 719 q 407 761 394 763 q 426 752 419 760 q 433 733 433 744 q 422 714 432 722 q 356 659 392 689 q 285 597 321 629 q 217 531 250 564 q 161 465 185 497 q 214 422 179 436 q 293 413 249 408 q 375 436 335 418 q 450 482 415 454 q 460 490 453 483 q 476 505 468 497 q 490 519 485 513 q 496 528 496 525 q 490 539 496 535 q 477 545 485 543 q 461 547 469 547 q 449 547 453 547 q 414 566 424 544 q 408 615 404 588 q 428 668 413 643 q 468 697 443 693 q 524 691 500 703 q 563 656 549 679 q 584 603 578 633 q 588 546 590 574 q 539 434 579 483 q 446 349 499 385 q 351 307 401 322 q 456 281 400 304 q 553 229 511 258 q 646 317 597 264 q 733 435 694 371 q 795 567 772 499 q 810 701 818 636 q 787 766 806 739 q 740 812 768 793 q 676 840 711 831 q 603 853 640 850 m 101 358 q 89 210 72 265 q 153 132 106 154 q 272 119 201 110 q 418 167 342 129 q 396 177 407 172 q 371 186 385 182 q 299 189 333 196 q 226 179 265 182 q 205 189 211 178 q 200 215 199 200 q 208 245 201 231 q 222 267 214 260 q 240 282 231 276 q 258 292 249 288 q 171 308 213 292 q 101 358 129 324 z "},"P":{"ha":1250,"x_min":-3,"x_max":1260,"o":"m 1144 897 q 1208 824 1182 865 q 1247 736 1235 782 q 1258 642 1260 690 q 1239 547 1257 594 q 1133 405 1206 468 q 972 306 1061 342 q 785 271 882 271 q 610 319 689 271 q 565 225 589 271 q 507 138 542 179 q 424 60 472 94 q 323 10 376 26 q 214 0 269 -6 q 108 42 158 6 q 28 135 54 79 q 0 253 3 192 q 14 378 -3 315 q 63 492 31 440 q 139 581 94 540 q 238 643 183 621 q 285 660 260 653 q 338 669 311 668 q 392 665 365 671 q 439 642 418 658 q 472 599 464 624 q 477 548 481 574 q 461 497 474 522 q 431 451 449 471 q 335 371 386 407 q 228 311 283 335 q 208 313 215 304 q 199 333 201 321 q 201 360 197 346 q 213 379 204 374 q 287 434 251 406 q 358 494 322 463 q 390 533 383 519 q 388 553 396 547 q 358 558 379 558 q 308 551 338 557 q 216 510 260 540 q 143 442 172 479 q 88 331 100 385 q 85 231 75 276 q 126 156 96 186 q 200 115 157 125 q 294 122 243 106 q 399 186 346 138 q 471 274 442 226 q 523 374 500 322 q 565 481 546 426 q 608 587 585 535 q 662 688 632 639 q 736 776 692 736 q 775 789 756 793 q 808 769 794 785 q 824 732 821 753 q 813 694 826 711 q 770 640 792 671 q 728 576 749 610 q 691 510 708 543 q 661 449 674 478 q 795 429 721 428 q 940 453 869 431 q 1069 522 1011 476 q 1151 633 1126 567 q 1161 694 1163 664 q 1144 752 1160 724 q 1098 805 1129 781 q 1017 847 1067 829 q 853 872 943 874 q 676 847 764 869 q 510 788 588 825 q 383 711 433 751 q 358 715 368 706 q 341 740 347 725 q 335 772 335 756 q 342 797 335 789 q 440 885 379 847 q 573 947 500 922 q 726 983 646 972 q 883 989 807 994 q 1028 961 960 983 q 1144 897 1096 939 z "},"O":{"ha":826,"x_min":-7,"x_max":849,"o":"m 832 808 q 849 705 849 758 q 835 598 849 651 q 799 492 822 544 q 744 392 775 439 q 615 229 689 304 q 453 103 542 154 q 360 57 410 76 q 259 31 310 38 q 162 32 208 24 q 78 69 115 40 q 14 155 33 104 q -6 260 -6 206 q 9 369 -7 315 q 53 467 25 424 q 85 647 44 558 q 198 808 126 736 q 361 927 269 881 q 543 979 453 974 q 637 973 592 982 q 720 942 682 964 q 788 886 758 919 q 832 808 817 853 m 664 403 q 708 471 688 435 q 744 544 729 507 q 767 620 760 582 q 769 694 774 658 q 715 807 763 765 q 596 857 667 849 q 472 846 536 863 q 349 796 408 829 q 240 714 289 763 q 163 607 192 665 q 259 688 207 650 q 364 758 311 725 q 390 765 379 768 q 407 752 401 761 q 412 731 413 743 q 401 710 411 718 q 337 656 371 685 q 269 597 303 628 q 206 533 236 565 q 151 469 175 501 q 201 428 167 442 q 279 419 236 414 q 362 442 321 422 q 436 492 403 463 q 456 512 446 500 q 470 533 467 524 q 465 549 474 543 q 431 553 457 556 q 396 572 406 550 q 390 621 386 593 q 408 674 393 649 q 449 703 424 699 q 505 696 482 708 q 542 660 528 683 q 563 608 557 638 q 565 551 568 579 q 520 442 558 492 q 432 360 482 393 q 342 315 390 331 q 247 298 293 299 q 160 313 201 297 q 93 363 119 328 q 88 244 72 293 q 142 167 103 194 q 240 138 182 140 q 360 157 297 135 q 448 201 404 174 q 531 260 492 228 q 605 330 571 293 q 664 403 639 367 z "},"N":{"ha":1346,"x_min":4,"x_max":1679,"o":"m 1607 1019 q 1641 1008 1625 1024 q 1667 974 1657 993 q 1678 935 1676 954 q 1668 914 1679 917 q 1571 858 1626 901 q 1454 748 1515 814 q 1332 598 1393 682 q 1218 422 1271 514 q 1126 235 1165 331 q 1071 50 1088 140 q 1058 24 1068 33 q 1037 10 1049 14 q 1013 9 1025 7 q 993 18 1001 11 q 915 134 939 64 q 884 283 890 204 q 885 442 878 363 q 903 588 892 522 q 872 544 888 565 q 842 499 857 522 q 714 320 781 407 q 561 163 647 233 q 484 106 525 132 q 398 61 443 79 q 304 36 353 43 q 206 39 256 29 q 117 78 154 49 q 54 147 79 107 q 17 232 29 186 q 4 324 4 278 q 33 495 4 410 q 111 654 61 581 q 231 785 161 728 q 386 875 301 843 q 474 898 428 892 q 564 896 521 904 q 643 863 607 888 q 700 794 679 839 q 721 708 721 753 q 708 619 721 663 q 670 535 694 575 q 617 461 646 494 q 558 403 592 433 q 483 350 524 374 q 400 314 443 326 q 315 310 357 301 q 247 354 269 318 q 221 432 224 390 q 240 519 218 481 q 299 588 263 558 q 328 594 315 601 q 348 572 342 588 q 354 537 354 556 q 346 508 354 518 q 335 494 343 504 q 318 474 326 485 q 304 453 310 464 q 300 438 299 443 q 338 419 310 418 q 397 431 365 421 q 456 456 428 442 q 494 479 483 471 q 551 525 519 496 q 608 589 583 554 q 645 661 633 624 q 642 732 657 699 q 593 783 626 769 q 522 794 560 796 q 444 781 483 793 q 379 757 406 769 q 269 688 318 731 q 182 593 219 646 q 140 521 161 564 q 106 431 119 478 q 90 336 93 383 q 101 251 88 289 q 150 188 115 213 q 247 160 185 163 q 390 188 322 157 q 515 269 457 219 q 620 379 572 319 q 706 492 668 439 q 788 609 749 550 q 868 728 828 668 q 910 788 889 757 q 953 849 931 819 q 1001 907 976 879 q 1054 957 1026 935 q 1089 965 1075 974 q 1110 939 1103 957 q 1117 899 1117 921 q 1108 865 1117 878 q 1085 833 1097 849 q 1060 803 1072 818 q 1016 701 1035 760 q 985 576 997 642 q 969 442 974 510 q 969 314 965 374 q 985 206 974 254 q 1017 133 996 158 q 1049 282 1025 203 q 1108 442 1072 361 q 1189 602 1143 522 q 1290 753 1235 682 q 1406 885 1344 825 q 1536 989 1468 946 q 1572 1008 1554 1000 q 1607 1019 1589 1017 z "},"M":{"ha":1483,"x_min":-8,"x_max":1588,"o":"m 1576 858 q 1400 622 1485 742 q 1257 364 1315 501 q 1224 265 1238 318 q 1208 163 1211 211 q 1213 78 1204 115 q 1247 28 1222 42 q 1313 30 1271 15 q 1417 101 1354 44 q 1456 108 1439 119 q 1481 71 1474 96 q 1486 17 1489 46 q 1467 -26 1483 -11 q 1399 -76 1436 -54 q 1322 -105 1361 -97 q 1243 -101 1282 -112 q 1174 -50 1204 -89 q 1132 28 1146 -15 q 1114 119 1118 72 q 1113 214 1110 167 q 1125 303 1117 261 q 1193 501 1147 407 q 1299 682 1239 594 q 1026 403 1143 561 q 839 64 908 246 q 830 47 836 56 q 815 33 824 39 q 797 28 807 28 q 779 38 788 29 q 750 82 758 58 q 741 131 742 106 q 743 184 740 157 q 749 236 746 211 q 769 363 757 300 q 794 496 781 426 q 751 420 776 460 q 696 340 726 381 q 631 262 665 300 q 561 192 596 224 q 442 113 511 147 q 301 67 374 78 q 162 76 229 56 q 49 165 94 97 q -1 300 6 229 q 12 442 -8 371 q 74 581 32 514 q 172 703 117 649 q 292 798 228 758 q 419 853 356 838 q 481 862 449 860 q 544 858 514 864 q 599 834 574 851 q 638 785 624 817 q 648 715 653 749 q 626 649 643 681 q 585 589 610 618 q 539 535 561 560 q 424 429 485 476 q 294 342 363 382 q 275 343 283 335 q 264 365 267 351 q 263 394 261 379 q 274 417 265 410 q 382 502 329 457 q 482 600 435 547 q 517 640 496 617 q 550 686 539 664 q 553 725 561 708 q 503 746 546 742 q 406 731 458 750 q 303 678 354 713 q 207 598 253 644 q 130 499 161 551 q 85 394 99 447 q 88 292 72 340 q 164 213 110 235 q 275 196 218 192 q 392 225 338 200 q 493 288 446 250 q 580 373 540 326 q 653 468 619 419 q 725 578 690 522 q 794 690 760 635 q 867 810 831 749 q 947 922 903 871 q 978 938 961 939 q 1007 925 994 936 q 1026 898 1019 914 q 1029 872 1033 882 q 926 616 967 749 q 858 336 885 483 q 1145 702 975 542 q 1531 971 1315 863 q 1563 969 1550 982 q 1582 936 1576 957 q 1586 892 1588 915 q 1576 858 1585 869 z "},"L":{"ha":863,"x_min":-3,"x_max":974,"o":"m 972 838 q 925 640 974 726 q 799 495 876 554 q 627 405 722 436 q 440 372 532 374 q 401 292 421 332 q 357 214 381 251 q 455 169 406 190 q 556 139 504 149 q 660 134 607 129 q 768 168 713 139 q 798 169 788 178 q 810 143 808 160 q 806 107 813 126 q 788 76 800 88 q 674 26 735 32 q 550 35 614 19 q 423 80 486 51 q 303 133 360 108 q 232 53 272 90 q 143 6 192 17 q 82 9 110 -1 q 35 40 54 19 q 7 89 17 61 q 0 146 -3 117 q 36 217 8 192 q 101 253 64 243 q 182 260 139 263 q 264 247 225 257 q 303 309 285 278 q 340 372 322 340 q 217 414 271 382 q 133 495 163 446 q 104 607 104 544 q 142 739 104 669 q 201 815 161 775 q 290 883 242 856 q 390 915 339 910 q 482 886 440 919 q 515 844 503 868 q 529 794 528 819 q 519 744 531 768 q 482 704 508 721 q 464 704 469 697 q 457 724 458 711 q 458 752 456 738 q 460 775 460 767 q 430 798 461 797 q 356 782 399 799 q 271 733 314 765 q 206 658 228 700 q 195 582 181 613 q 243 532 210 551 q 320 504 276 513 q 399 494 364 496 q 456 619 426 557 q 522 739 485 681 q 627 874 567 811 q 767 974 688 938 q 845 992 808 993 q 910 974 882 992 q 954 921 938 956 q 972 838 971 886 m 104 192 q 63 170 74 185 q 56 142 51 156 q 78 122 60 129 q 126 126 97 115 q 167 150 147 135 q 204 181 188 165 q 164 195 194 192 q 104 192 133 199 m 604 689 q 549 599 574 646 q 500 506 524 553 q 619 531 551 507 q 747 599 686 556 q 853 703 808 642 q 901 838 897 764 q 892 863 901 854 q 868 873 882 871 q 838 872 854 875 q 810 865 822 869 q 749 835 778 854 q 694 792 719 815 q 645 742 668 768 q 604 689 622 715 z "},"K":{"ha":1326,"x_min":-3,"x_max":1474,"o":"m 1386 865 q 1432 855 1411 868 q 1463 822 1453 842 q 1472 778 1474 801 q 1451 739 1471 756 q 1436 733 1443 731 q 1425 742 1429 735 q 1388 752 1414 758 q 1328 725 1363 746 q 1210 648 1271 692 q 1085 558 1149 604 q 956 466 1021 511 q 828 386 892 421 q 917 324 875 363 q 1004 250 960 285 q 1100 197 1049 215 q 1218 196 1151 178 q 1256 188 1244 203 q 1265 149 1267 172 q 1247 103 1263 126 q 1206 71 1232 79 q 1103 59 1147 51 q 1022 90 1058 67 q 954 149 985 114 q 892 221 924 183 q 826 292 861 258 q 749 347 792 326 q 695 256 724 301 q 631 172 667 211 q 553 100 596 132 q 461 47 511 68 q 413 47 438 36 q 373 76 389 57 q 353 115 357 94 q 367 144 350 135 q 535 277 458 196 q 678 453 613 358 q 800 650 744 549 q 904 843 856 751 q 813 808 867 824 q 695 776 758 792 q 565 746 632 761 q 433 712 497 731 q 310 669 368 693 q 207 613 251 644 q 131 539 160 578 q 94 464 103 500 q 94 398 85 428 q 130 353 103 368 q 202 340 157 338 q 310 372 247 343 q 408 431 363 396 q 482 506 453 465 q 510 567 518 550 q 472 581 503 583 q 352 541 410 576 q 254 457 294 506 q 229 451 243 444 q 210 468 215 458 q 201 500 201 482 q 211 529 201 518 q 305 623 247 583 q 429 669 363 663 q 493 663 464 674 q 542 633 522 653 q 571 585 561 614 q 578 525 581 557 q 563 464 575 493 q 531 408 550 435 q 490 358 513 382 q 444 315 467 335 q 339 247 397 275 q 218 215 281 218 q 94 244 143 211 q 21 331 44 278 q -1 446 -3 383 q 31 563 1 508 q 140 695 72 643 q 291 783 208 747 q 467 844 374 819 q 652 892 560 868 q 833 943 744 915 q 993 1015 921 971 q 1026 1015 1013 1028 q 1044 982 1039 1003 q 1049 938 1050 961 q 1040 904 1049 914 q 919 715 971 813 q 821 510 868 617 q 949 581 889 540 q 1069 667 1010 622 q 1188 755 1128 711 q 1313 835 1247 799 q 1348 854 1329 846 q 1386 865 1367 863 z "},"I":{"ha":838,"x_min":-8,"x_max":1067,"o":"m 1028 979 q 1060 966 1053 988 q 1061 916 1067 944 q 1039 864 1056 888 q 999 844 1022 840 q 917 763 951 810 q 856 663 883 717 q 806 551 828 610 q 761 433 783 492 q 714 316 739 374 q 657 208 689 258 q 590 117 625 160 q 503 47 556 75 q 463 31 486 38 q 417 23 440 25 q 370 25 393 21 q 329 42 347 29 q 287 92 299 64 q 279 151 275 121 q 301 210 283 181 q 345 261 318 239 q 406 297 372 283 q 476 308 439 310 q 499 292 490 308 q 511 257 508 276 q 509 220 514 238 q 492 199 504 203 q 444 188 467 199 q 408 165 422 178 q 391 143 394 153 q 400 133 388 133 q 447 146 422 133 q 495 178 472 158 q 538 219 518 197 q 571 261 558 242 q 649 403 615 329 q 713 551 682 476 q 778 699 744 625 q 860 840 813 772 q 710 856 785 843 q 565 869 636 869 q 356 835 457 872 q 175 728 256 797 q 106 641 129 689 q 80 547 82 593 q 97 464 78 501 q 158 408 117 426 q 231 393 193 393 q 306 405 268 393 q 377 438 343 417 q 439 485 411 458 q 463 516 447 494 q 492 562 479 538 q 508 610 504 586 q 497 646 513 633 q 456 655 481 660 q 405 636 431 650 q 356 604 379 622 q 318 572 332 586 q 295 567 306 560 q 280 589 285 574 q 276 622 275 604 q 288 649 276 640 q 337 690 310 669 q 393 722 364 710 q 454 735 422 735 q 518 718 486 736 q 563 671 550 699 q 576 612 576 643 q 567 549 576 581 q 543 490 557 517 q 478 399 518 440 q 390 330 439 357 q 285 294 340 303 q 172 300 229 285 q 69 356 110 317 q 10 448 28 396 q -4 558 -8 500 q 25 671 0 617 q 99 779 54 731 q 200 864 144 828 q 318 925 256 900 q 444 961 381 950 q 585 972 515 976 q 726 956 656 967 q 878 949 807 946 q 1028 979 950 951 z "},"H":{"ha":1250,"x_min":-3,"x_max":1456,"o":"m 1386 964 q 1415 967 1400 972 q 1439 951 1429 961 q 1452 928 1449 940 q 1449 910 1456 915 q 1273 735 1353 835 q 1136 535 1193 635 q 1149 533 1143 533 q 1163 529 1156 532 q 1186 510 1179 526 q 1192 476 1193 494 q 1181 441 1190 457 q 1156 424 1172 425 q 1110 419 1133 419 q 1061 419 1086 418 q 967 231 1010 326 q 882 40 924 136 q 856 12 871 15 q 829 18 842 8 q 810 47 817 28 q 807 85 803 65 q 861 256 828 172 q 938 419 894 339 q 811 415 875 419 q 676 404 747 410 q 663 381 669 393 q 649 358 656 369 q 568 239 614 301 q 466 124 522 176 q 344 38 410 72 q 203 4 278 4 q 107 28 146 4 q 44 90 68 51 q 8 178 19 129 q -3 280 -3 228 q 6 381 -3 332 q 28 469 14 431 q 98 596 51 533 q 206 704 144 658 q 340 772 268 750 q 486 778 411 793 q 546 749 521 771 q 583 697 571 726 q 592 633 594 667 q 568 569 589 599 q 518 520 547 542 q 456 482 489 499 q 388 453 422 465 q 321 435 353 442 q 301 444 308 432 q 293 472 294 456 q 296 502 292 488 q 311 519 300 517 q 404 551 357 531 q 483 610 451 572 q 497 653 508 638 q 421 658 486 669 q 317 624 368 649 q 223 563 267 600 q 145 477 179 525 q 93 372 111 429 q 79 269 78 324 q 101 174 81 215 q 163 117 122 133 q 267 128 204 100 q 346 174 307 146 q 421 236 385 201 q 488 310 457 271 q 546 389 519 349 q 515 386 529 388 q 483 385 500 385 q 459 400 468 386 q 449 431 450 414 q 453 464 447 449 q 472 485 458 479 q 547 501 508 496 q 624 511 586 507 q 708 653 667 582 q 799 790 750 725 q 906 912 847 856 q 1043 1010 965 968 q 1081 1011 1061 1019 q 1114 987 1101 1003 q 1128 953 1126 971 q 1114 925 1131 935 q 1006 847 1058 893 q 905 747 953 801 q 816 635 857 693 q 743 524 775 578 q 868 530 806 526 q 1004 536 931 533 q 1076 645 1033 583 q 1170 768 1119 707 q 1276 882 1221 829 q 1386 964 1332 935 z "},"G":{"ha":904,"x_min":-4,"x_max":982,"o":"m 889 810 q 919 840 903 836 q 951 832 936 843 q 974 801 965 821 q 979 760 982 781 q 947 644 972 701 q 893 533 921 586 q 813 385 861 468 q 705 224 765 303 q 574 85 644 146 q 426 1 503 24 q 347 -9 388 -10 q 271 5 306 -8 q 211 44 236 18 q 178 110 186 69 q 186 188 169 149 q 235 260 203 228 q 311 313 268 292 q 399 339 354 335 q 476 326 439 343 q 526 275 514 308 q 526 202 540 239 q 475 149 513 165 q 439 155 453 140 q 421 192 425 169 q 422 217 418 206 q 429 238 426 229 q 429 250 432 246 q 410 254 426 254 q 347 232 388 251 q 297 199 315 217 q 269 164 278 181 q 265 130 261 146 q 283 103 268 114 q 321 90 297 93 q 378 94 344 88 q 456 122 419 101 q 528 174 493 143 q 602 253 567 208 q 667 344 638 297 q 723 437 697 390 q 769 524 749 483 q 690 465 732 494 q 602 412 649 435 q 504 376 556 389 q 399 367 453 363 q 319 390 356 371 q 258 440 283 408 q 218 513 232 471 q 207 601 204 554 q 122 631 161 611 q 53 681 82 651 q 10 751 25 711 q 0 843 -4 792 q 10 872 1 861 q 30 884 19 882 q 49 880 40 886 q 60 860 58 874 q 76 797 61 825 q 115 747 90 768 q 170 714 139 726 q 238 700 201 701 q 328 829 267 769 q 464 933 389 889 q 620 1001 539 976 q 771 1024 701 1025 q 860 1003 819 1022 q 917 946 901 983 q 916 879 929 914 q 874 817 903 844 q 751 722 821 764 q 604 651 682 681 q 446 606 526 621 q 289 592 365 590 q 295 514 282 546 q 335 465 308 482 q 401 445 363 447 q 482 458 439 443 q 603 515 544 479 q 715 596 663 550 q 811 697 767 642 q 889 810 856 751 m 754 854 q 813 903 797 883 q 824 934 828 922 q 801 950 819 946 q 757 953 782 954 q 649 927 711 950 q 526 869 586 904 q 415 790 465 833 q 340 707 364 747 q 422 717 369 704 q 534 751 474 729 q 653 799 594 772 q 754 854 713 826 z "},"F":{"ha":1024,"x_min":-7,"x_max":1503,"o":"m 1465 1039 q 1492 1016 1483 1035 q 1502 974 1501 997 q 1497 929 1503 951 q 1481 897 1490 907 q 1412 857 1451 869 q 1328 840 1372 844 q 1241 838 1285 836 q 1160 843 1197 840 q 1009 863 1083 849 q 860 892 935 876 q 876 860 871 879 q 876 825 881 842 q 757 497 836 654 q 826 494 792 494 q 896 490 860 493 q 943 481 922 488 q 955 467 951 476 q 958 449 958 458 q 953 431 957 439 q 940 424 949 424 q 835 427 889 424 q 722 432 781 431 q 663 338 699 390 q 582 232 626 285 q 485 131 538 179 q 376 51 433 83 q 260 7 319 19 q 139 14 200 -6 q 56 64 88 31 q 10 142 25 97 q -6 236 -6 186 q 1 336 -7 286 q 91 549 22 454 q 267 718 160 643 q 260 743 260 732 q 280 849 257 803 q 342 927 303 894 q 434 981 382 960 q 541 1015 486 1003 q 649 1030 596 1026 q 746 1031 703 1033 q 905 1020 826 1026 q 1061 1012 983 1014 q 1217 1015 1139 1010 q 1378 1036 1296 1019 q 1422 1042 1400 1040 q 1465 1039 1443 1043 m 158 106 q 272 140 214 106 q 385 225 331 175 q 485 331 439 275 q 563 429 532 386 q 518 429 539 429 q 475 432 497 429 q 458 453 463 433 q 403 394 435 418 q 331 358 371 369 q 295 367 308 351 q 278 407 282 383 q 282 454 275 431 q 307 488 289 478 q 417 576 397 539 q 411 624 438 614 q 326 612 385 635 q 201 521 268 589 q 104 382 139 456 q 63 247 69 308 q 81 146 57 186 q 158 106 104 106 m 800 874 q 818 899 808 893 q 687 913 756 911 q 554 900 618 915 q 435 849 490 885 q 342 750 379 814 q 383 754 363 754 q 422 747 403 754 q 472 710 454 735 q 497 653 490 685 q 502 588 504 622 q 492 525 500 554 q 486 507 489 517 q 478 489 483 497 q 542 498 510 496 q 610 500 575 500 q 707 674 663 583 q 800 874 751 764 z "},"@":{"ha":771,"x_min":-14,"x_max":736,"o":"m 579 228 q 613 240 600 246 q 629 215 625 233 q 628 174 633 197 q 607 135 622 151 q 524 72 574 99 q 417 30 475 44 q 299 15 360 15 q 182 35 238 15 q 68 103 111 60 q 6 201 25 146 q -12 320 -14 257 q 7 447 -10 383 q 48 554 21 500 q 113 658 75 608 q 197 750 150 708 q 296 819 243 792 q 428 853 357 850 q 563 832 500 857 q 672 756 626 807 q 726 626 717 704 q 704 466 736 547 q 614 326 672 385 q 567 287 594 307 q 511 256 540 267 q 453 250 482 246 q 403 286 425 254 q 390 313 394 299 l 382 304 q 331 260 358 282 q 269 242 304 238 q 217 273 235 246 q 193 335 199 300 q 192 406 188 369 q 204 467 196 443 q 247 543 218 508 q 313 598 275 578 q 393 620 350 618 q 481 600 436 622 q 520 576 501 590 q 553 545 539 563 q 574 508 567 528 q 576 467 581 488 q 565 437 574 451 q 540 431 556 422 q 519 443 531 438 q 496 456 507 449 q 468 413 485 440 q 451 363 451 385 q 465 340 451 342 q 496 344 478 338 q 531 360 514 350 q 556 376 549 371 q 632 470 600 415 q 667 586 664 525 q 635 683 668 644 q 554 741 603 722 q 448 758 506 760 q 342 733 390 756 q 222 653 279 706 q 124 538 164 601 q 66 403 83 474 q 67 267 49 332 q 119 172 82 206 q 203 126 156 139 q 306 120 251 114 q 411 142 360 126 q 507 181 463 158 q 579 228 551 204 m 317 381 q 364 431 342 403 q 410 482 386 458 q 351 475 379 485 q 300 435 324 465 q 284 407 292 424 q 278 375 276 390 q 282 360 278 363 q 292 360 286 357 q 303 369 297 363 q 317 381 310 375 z "},"U":{"ha":1015,"x_min":-1,"x_max":1199,"o":"m 1125 965 q 1156 973 1142 978 q 1181 956 1171 968 q 1194 926 1190 943 q 1194 899 1199 910 q 1166 845 1183 872 q 1128 792 1149 818 q 1089 741 1108 767 q 1056 690 1069 715 q 949 484 997 592 q 876 260 901 376 q 861 147 863 203 q 863 81 860 118 q 872 15 865 43 q 867 -8 875 4 q 847 -25 860 -19 q 818 -26 833 -31 q 793 0 803 -21 q 770 83 775 39 q 769 172 765 126 q 783 263 772 217 q 806 351 793 308 q 728 235 767 293 q 647 122 689 176 q 599 72 628 96 q 540 36 571 49 q 476 28 508 24 q 417 65 443 33 q 382 135 390 96 q 376 214 374 174 q 390 294 379 254 q 415 367 401 333 q 491 515 447 443 q 575 658 535 586 q 617 731 594 693 q 650 808 639 768 q 645 840 654 829 q 622 854 636 850 q 588 858 607 858 q 556 856 569 857 q 402 805 475 846 q 267 711 329 764 q 161 602 211 664 q 94 467 111 540 q 100 434 89 443 q 132 427 111 425 q 178 438 153 429 q 229 458 204 446 q 274 480 254 469 q 301 496 293 490 q 334 522 318 508 q 364 551 350 536 q 374 562 367 554 q 389 578 382 569 q 401 594 396 586 q 404 608 406 603 q 393 618 401 615 q 374 622 385 621 q 355 621 364 622 q 340 618 346 619 q 304 599 321 611 q 272 576 288 588 q 247 572 257 565 q 231 594 236 579 q 228 626 226 608 q 240 651 231 643 q 317 701 276 681 q 404 708 357 722 q 467 651 451 693 q 474 565 483 608 q 437 478 465 521 q 369 400 408 436 q 285 338 331 364 q 197 299 240 311 q 120 291 160 288 q 50 322 81 294 q 8 397 17 351 q 6 485 -1 442 q 69 647 18 568 q 192 791 119 726 q 349 901 264 856 q 518 964 435 946 q 598 972 556 972 q 674 949 640 972 q 722 881 710 922 q 728 799 733 839 q 706 708 724 754 q 663 617 688 663 q 611 525 639 571 q 558 436 583 479 q 524 372 540 404 q 489 296 507 339 q 475 256 482 281 q 464 206 468 231 q 460 159 460 181 q 469 129 460 138 q 497 128 478 121 q 550 169 517 136 q 594 219 574 193 q 621 253 614 244 q 716 379 671 315 q 807 507 761 443 q 899 640 854 574 q 990 774 944 707 q 1018 821 1003 793 q 1051 876 1033 849 q 1087 928 1068 904 q 1125 965 1106 953 z "},"V":{"ha":953,"x_min":-10,"x_max":1300,"o":"m 1240 1033 q 1272 1024 1258 1036 q 1293 994 1286 1011 q 1299 960 1300 976 q 1286 936 1297 943 q 1228 897 1258 918 q 1168 853 1199 876 q 1054 747 1111 808 q 941 616 997 686 q 831 469 885 546 q 726 317 776 393 q 628 168 675 240 q 540 33 581 96 q 503 10 528 14 q 454 16 479 7 q 410 44 429 25 q 389 90 392 64 q 401 257 382 176 q 453 415 421 338 q 393 354 429 381 q 321 311 357 328 q 259 289 292 299 q 194 277 226 279 q 129 282 161 275 q 69 307 97 289 q 20 356 38 326 q -3 419 3 385 q -6 488 -10 453 q 8 556 -3 524 q 78 699 33 631 q 183 822 122 767 q 316 915 243 876 q 469 968 389 953 q 549 976 510 976 q 621 961 589 976 q 672 915 656 944 q 691 852 688 886 q 690 783 694 818 q 676 717 685 747 q 619 565 656 642 q 549 411 583 489 q 492 254 514 333 q 479 96 471 175 q 573 256 521 167 q 685 442 625 346 q 815 634 746 538 q 958 814 883 731 q 1012 872 978 836 q 1085 942 1046 907 q 1166 1003 1125 976 q 1240 1033 1207 1029 m 485 544 q 483 486 489 511 q 531 585 506 536 q 549 621 536 597 q 574 674 561 644 q 597 733 586 703 q 610 790 607 764 q 604 835 613 817 q 572 857 596 853 q 479 849 531 863 q 375 809 428 836 q 271 744 322 782 q 178 661 219 706 q 109 569 138 617 q 74 476 81 521 q 88 410 65 429 q 147 388 110 390 q 228 399 183 386 q 311 429 272 411 q 376 479 353 449 q 400 535 400 510 q 374 574 400 561 q 293 569 349 586 q 268 574 276 564 q 258 598 260 583 q 260 628 256 613 q 275 651 265 644 q 343 673 308 674 q 407 656 378 672 q 457 609 436 639 q 485 544 478 579 z "},"X":{"ha":915,"x_min":-10,"x_max":1186,"o":"m 1115 949 q 1146 950 1131 956 q 1171 934 1161 944 q 1183 911 1181 924 q 1178 893 1186 899 q 1052 799 1121 853 q 914 685 983 746 q 780 558 844 624 q 667 431 715 493 q 663 333 658 385 q 687 236 668 282 q 741 154 706 190 q 829 104 776 118 q 849 78 847 99 q 842 35 851 57 q 815 -5 833 13 q 775 -19 797 -22 q 673 20 713 -14 q 610 103 633 54 q 579 211 588 153 q 569 324 571 269 q 433 168 496 250 q 300 -7 371 86 q 278 -17 290 -19 q 258 -6 267 -15 q 244 16 249 3 q 242 38 239 29 q 288 122 251 71 q 372 232 324 172 q 475 357 419 292 q 581 488 531 422 q 591 572 586 531 q 601 653 596 613 q 607 734 606 688 q 596 819 608 781 q 553 881 583 858 q 464 892 522 904 q 375 857 424 883 q 280 792 326 831 q 193 709 233 754 q 127 617 153 664 q 96 526 101 571 q 113 446 90 482 q 156 415 126 422 q 219 410 185 407 q 290 426 254 414 q 352 458 325 439 q 394 499 379 476 q 403 546 410 522 q 360 572 396 568 q 257 551 325 576 q 234 560 242 547 q 225 592 226 574 q 229 627 224 610 q 247 649 235 644 q 301 661 272 657 q 356 663 329 665 q 406 651 382 661 q 446 622 429 642 q 483 534 481 581 q 465 446 485 488 q 410 369 446 404 q 335 315 374 335 q 236 288 285 292 q 146 297 188 285 q 72 338 104 310 q 19 403 39 365 q -7 521 -10 461 q 20 637 -4 581 q 87 744 44 693 q 180 836 129 794 q 285 909 231 878 q 390 957 340 940 q 450 973 419 967 q 511 978 481 979 q 571 966 542 976 q 624 933 600 956 q 664 880 649 910 q 686 818 679 850 q 694 752 693 786 q 693 686 694 718 q 689 641 690 663 q 686 597 688 619 q 778 688 726 638 q 888 788 831 739 q 1003 881 944 838 q 1115 949 1061 924 z "},"Y":{"ha":839,"x_min":-1,"x_max":1025,"o":"m 933 936 q 969 936 951 943 q 1001 916 988 929 q 1019 888 1014 903 q 1017 865 1025 874 q 980 826 999 846 q 942 785 961 806 q 828 613 872 706 q 742 419 785 519 q 694 301 718 360 q 642 183 669 242 q 583 85 617 132 q 499 6 550 38 q 401 -24 454 -19 q 303 -4 349 -28 q 227 76 250 24 q 207 185 204 129 q 241 283 210 235 q 319 368 272 332 q 422 422 367 404 q 529 426 478 439 q 555 406 546 422 q 566 372 564 390 q 561 339 568 354 q 540 322 554 324 q 482 314 515 319 q 416 298 449 308 q 354 271 383 288 q 308 228 325 254 q 293 167 289 199 q 319 119 297 136 q 378 106 340 101 q 465 150 417 110 q 533 224 504 183 q 584 310 561 264 q 626 407 607 357 q 668 510 646 457 q 629 483 649 494 q 588 461 610 471 q 517 444 556 444 q 453 476 478 443 q 429 547 428 507 q 444 629 431 588 q 478 712 458 671 q 510 786 497 753 q 526 836 521 814 q 526 869 532 858 q 474 887 514 892 q 384 859 435 882 q 278 800 333 836 q 177 726 222 764 q 105 651 132 688 q 83 589 78 614 q 108 566 88 571 q 156 565 128 561 q 215 578 183 568 q 273 603 246 589 q 319 633 300 618 q 340 663 338 649 q 335 670 343 669 q 304 658 326 671 q 284 659 292 651 q 274 679 276 667 q 272 705 271 692 q 276 724 274 718 q 317 760 290 751 q 371 753 343 768 q 410 714 397 742 q 424 658 422 686 q 408 590 425 621 q 363 536 390 560 q 302 495 336 513 q 235 467 268 478 q 181 452 210 458 q 126 447 153 446 q 74 459 99 449 q 31 493 49 469 q 4 549 10 519 q 3 610 -1 579 q 22 670 8 640 q 51 725 35 700 q 131 817 85 774 q 231 896 176 861 q 344 955 285 931 q 465 989 404 979 q 569 962 531 1000 q 604 861 608 924 q 594 822 604 849 q 572 760 585 794 q 546 688 560 725 q 522 618 532 651 q 512 530 503 553 q 549 515 521 507 q 617 557 576 524 q 699 639 657 590 q 754 718 726 672 q 810 808 782 764 q 868 887 838 851 q 933 936 899 922 z "},"'":{"ha":314,"x_min":150,"x_max":272,"o":"m 228 1022 q 247 1020 238 1025 q 263 1008 257 1015 q 271 990 269 1000 q 268 974 272 981 q 258 959 265 969 q 243 937 251 949 q 227 915 235 925 q 215 900 219 904 q 181 892 203 888 q 154 915 160 896 q 165 951 150 935 q 190 983 179 967 q 206 1004 199 994 q 228 1022 214 1014 z "},"*":{"ha":349,"x_min":28,"x_max":307,"o":"m 289 1043 q 300 1040 296 1044 q 306 1029 304 1036 q 306 1015 307 1022 q 300 1004 304 1008 q 247 967 276 983 q 188 936 217 951 q 222 894 204 917 q 256 851 240 871 q 258 843 258 849 q 254 833 257 838 q 247 828 251 829 q 238 831 243 826 q 199 867 218 847 q 164 910 181 888 q 146 867 156 888 q 124 828 136 846 q 115 822 119 821 q 107 828 110 824 q 103 841 104 833 q 103 853 101 849 q 112 877 107 865 q 121 901 117 889 q 40 871 83 882 q 32 873 35 869 q 28 882 29 876 q 29 892 28 888 q 33 900 31 897 q 80 930 56 917 q 128 956 104 943 q 103 993 115 975 q 81 1029 92 1011 q 78 1040 78 1033 q 80 1051 78 1046 q 85 1058 82 1057 q 93 1053 89 1058 q 122 1018 108 1035 q 149 983 135 1001 q 160 1024 156 1004 q 171 1064 165 1044 q 185 1070 176 1079 q 193 1050 194 1061 q 189 1019 192 1035 q 183 986 186 1003 q 235 1017 210 1001 q 289 1043 261 1032 z "},"_":{"ha":618,"x_min":40,"x_max":542,"o":"m 517 110 q 533 93 526 106 q 540 67 539 81 q 537 40 542 53 q 519 24 532 28 q 490 15 504 17 q 460 14 475 14 q 381 16 421 14 q 301 15 342 18 q 188 8 244 14 q 74 10 131 3 q 53 24 61 11 q 42 52 44 36 q 45 82 40 68 q 64 100 50 96 q 219 120 138 119 q 408 121 301 121 q 464 121 436 121 q 517 110 492 121 z "},"":{"ha":776,"x_min":0,"x_max":747,"o":"m 471 850 q 575 840 525 856 q 663 792 625 825 q 723 713 700 760 q 747 613 746 667 q 740 583 747 594 q 723 567 733 571 q 702 571 713 564 q 688 597 692 578 q 653 654 679 632 q 595 688 628 676 q 526 700 563 700 q 460 690 490 700 q 315 596 376 661 q 347 595 325 596 q 394 594 369 594 q 440 591 418 593 q 469 588 461 589 q 480 577 476 585 q 483 560 483 569 q 478 544 482 551 q 465 535 474 536 q 424 531 451 532 q 368 531 397 531 q 312 531 339 531 q 269 531 285 531 q 260 513 264 522 q 251 496 256 504 q 242 473 246 485 q 236 447 239 461 q 290 447 257 447 q 359 447 324 447 q 428 444 394 446 q 481 438 461 442 q 492 427 489 435 q 495 410 496 419 q 490 392 494 400 q 478 383 486 385 q 423 378 457 379 q 352 377 389 376 q 281 379 315 378 q 225 382 246 381 q 229 313 222 346 q 254 250 236 279 q 312 204 279 210 q 379 210 344 199 q 448 242 414 222 q 511 271 482 261 q 544 267 532 279 q 562 237 557 256 q 565 197 567 218 q 556 165 563 176 q 478 83 526 115 q 376 44 429 51 q 272 55 324 36 q 183 125 219 74 q 128 248 144 181 q 114 386 111 315 q 69 390 90 388 q 25 397 47 393 q 15 405 18 399 q 13 419 13 411 q 17 435 14 428 q 28 443 21 442 q 74 447 51 446 q 119 450 96 449 q 126 489 122 469 q 138 528 131 508 q 77 525 107 526 q 17 525 47 524 q 6 531 10 525 q 1 546 1 538 q 3 561 0 554 q 13 569 6 568 q 85 583 49 579 q 160 590 122 588 q 211 682 181 638 q 281 761 242 726 q 369 819 321 796 q 471 850 417 843 z "},"":{"ha":436,"x_min":-6,"x_max":496,"o":"m 353 675 q 451 624 410 664 q 496 521 493 583 q 491 498 496 508 q 478 483 486 488 q 462 482 471 479 q 446 499 453 485 q 384 560 422 549 q 303 560 346 572 q 272 477 288 518 q 242 393 257 436 q 222 336 232 365 q 203 276 213 307 q 288 306 247 285 q 372 336 328 326 q 397 327 389 339 q 405 299 404 315 q 402 265 406 282 q 392 242 399 249 q 345 203 372 221 q 288 172 318 185 q 224 151 257 158 q 161 147 192 144 q 140 97 150 121 q 118 49 131 72 q 106 38 113 38 q 93 46 99 39 q 84 63 88 53 q 82 79 81 72 q 91 119 86 99 q 101 158 96 139 q 74 174 88 164 q 10 256 26 207 q 2 358 -6 304 q 38 465 10 411 q 106 563 65 518 q 197 639 147 608 q 296 676 246 669 l 299 676 q 320 726 308 703 q 349 764 332 749 q 358 768 354 769 q 364 762 361 767 q 367 751 367 757 q 368 743 368 746 q 353 675 367 711 m 140 276 q 190 402 164 340 q 240 531 217 464 q 172 479 208 513 q 113 408 135 446 q 92 334 90 369 q 140 276 94 299 z "},"":{"ha":742,"x_min":-4,"x_max":699,"o":"m 628 169 q 653 168 644 178 q 661 140 661 158 q 653 102 661 122 q 629 68 646 82 q 551 28 594 39 q 461 21 507 18 q 371 39 415 24 q 290 78 326 54 q 224 102 253 101 q 170 89 196 103 q 119 51 144 75 q 63 6 93 28 q 44 2 53 0 q 27 9 35 4 q 15 22 19 14 q 7 36 10 29 q -1 60 3 46 q -4 88 -4 74 q 0 114 -4 101 q 15 132 4 126 q 82 174 49 149 q 146 231 115 199 q 199 304 176 264 q 235 392 222 344 q 186 396 210 393 q 142 407 163 399 q 127 424 131 411 q 126 450 124 436 q 135 476 128 464 q 153 493 142 489 q 218 506 185 504 q 285 508 251 508 q 334 620 308 567 q 396 719 360 674 q 451 777 418 749 q 519 822 483 806 q 590 840 554 839 q 657 815 626 840 q 692 753 685 792 q 686 676 699 714 q 647 609 674 636 q 588 557 619 582 q 563 551 572 546 q 551 570 554 557 q 551 599 549 583 q 561 624 553 615 q 587 652 571 635 q 606 685 603 669 q 599 701 610 699 q 574 704 588 704 q 517 685 544 703 q 471 643 490 667 q 424 580 443 614 q 388 511 404 546 q 432 509 411 511 q 472 500 453 507 q 489 481 485 496 q 491 450 493 467 q 481 419 489 433 q 458 400 472 404 q 399 390 429 392 q 340 390 369 389 q 322 352 335 378 q 295 299 310 326 q 267 247 281 271 q 249 210 254 222 q 353 158 299 174 q 460 139 408 142 q 555 145 511 136 q 628 169 599 154 z "},"":{"ha":528,"x_min":-12,"x_max":578,"o":"m 439 557 q 374 469 406 514 q 315 376 343 425 q 300 350 308 363 q 333 348 317 350 q 367 343 350 346 q 375 335 372 342 q 378 319 378 328 q 374 304 378 311 q 364 297 369 297 q 317 294 340 294 q 269 294 293 294 q 253 264 261 279 q 239 232 246 249 q 277 231 258 232 q 315 224 296 229 q 326 215 322 222 q 328 199 329 207 q 324 183 328 190 q 311 175 319 175 q 263 172 288 172 q 213 174 238 172 q 186 108 199 140 q 154 46 174 75 q 127 24 142 25 q 101 31 113 22 q 82 56 89 40 q 78 85 75 71 q 89 126 81 100 q 103 167 97 151 q 59 161 81 164 q 14 158 38 158 q 4 164 7 158 q 1 176 1 169 q 2 188 0 182 q 10 197 4 194 q 66 215 38 208 q 125 225 94 222 q 140 258 132 242 q 154 290 147 274 q 78 280 117 286 q 3 269 40 274 q -8 274 -4 269 q -12 287 -11 279 q -10 301 -12 294 q -1 310 -7 307 q 89 333 43 325 q 181 344 135 340 q 187 355 183 350 q 193 367 190 360 q 117 343 153 349 q 66 348 88 339 q 31 375 44 357 q 9 417 17 393 q 0 468 1 442 q 6 559 -3 508 q 33 659 14 610 q 78 753 51 708 q 139 825 106 797 q 172 836 156 838 q 202 826 189 835 q 222 804 215 817 q 222 782 228 792 q 177 708 200 746 q 135 633 154 671 q 100 556 115 596 q 79 476 85 517 q 83 434 74 446 q 110 424 92 422 q 155 440 129 426 q 210 474 181 453 q 288 540 251 504 q 357 616 324 576 q 425 696 390 656 q 500 774 460 736 q 531 785 515 789 q 559 769 547 782 q 574 740 571 757 q 569 713 578 724 q 540 675 557 696 q 505 633 522 654 q 470 592 488 613 q 439 557 453 572 z "},"$":{"ha":875,"x_min":-6,"x_max":683,"o":"m 503 783 q 569 764 538 776 q 626 731 601 751 q 667 681 651 710 q 683 614 682 653 q 679 592 683 606 q 668 569 675 579 q 651 557 661 560 q 631 565 642 554 q 560 624 594 601 q 472 650 525 646 l 443 650 q 428 615 433 632 q 346 411 385 517 q 344 406 346 407 q 431 389 388 400 q 500 346 474 378 q 524 253 532 304 q 482 165 517 201 q 379 96 443 122 q 249 65 315 69 q 222 -7 238 26 q 201 -26 213 -25 q 179 -17 189 -26 q 163 8 169 -7 q 156 33 156 22 q 156 74 154 53 q 110 90 132 81 q 69 115 89 100 q 54 142 60 122 q 49 183 49 163 q 59 218 50 203 q 88 231 68 233 q 136 222 113 228 q 183 210 160 215 q 199 266 193 238 q 217 322 206 294 q 140 332 179 326 q 68 357 101 338 q 11 419 28 381 q 1 503 -6 458 q 53 614 10 564 q 157 700 97 664 q 284 758 217 736 q 407 786 351 781 q 436 833 421 810 q 471 871 451 856 q 491 876 482 879 q 506 864 500 874 q 515 842 513 854 q 515 821 517 831 q 503 783 511 801 m 246 606 q 153 549 192 581 q 108 489 115 517 q 131 442 100 461 q 249 422 163 422 q 259 449 254 436 q 268 476 264 461 q 301 557 285 517 q 338 638 318 597 q 291 624 314 631 q 246 606 268 617 m 294 208 q 378 232 342 215 q 424 266 414 249 q 409 297 433 283 q 314 311 385 310 q 297 259 304 285 q 283 207 290 233 q 289 208 286 207 q 294 208 292 208 z "},"^":{"ha":413,"x_min":69,"x_max":356,"o":"m 351 903 q 354 876 353 894 q 353 837 356 857 q 345 801 351 817 q 325 782 339 785 q 294 792 306 778 q 276 822 282 807 q 267 866 269 843 q 261 911 264 889 q 188 857 222 886 q 115 801 153 828 q 89 797 100 790 q 74 817 78 803 q 71 847 69 831 q 82 872 72 864 q 176 951 126 913 q 265 1035 225 990 q 308 1049 285 1058 q 336 1011 331 1039 q 345 958 342 985 q 351 903 349 931 z "},"!":{"ha":351,"x_min":4,"x_max":404,"o":"m 325 943 q 353 955 339 956 q 379 945 368 954 q 397 923 390 936 q 403 899 404 910 q 388 838 400 869 q 363 774 375 806 q 319 669 343 724 q 269 558 294 614 q 218 449 243 503 q 171 347 193 394 q 147 326 161 328 q 119 331 133 324 q 96 353 106 339 q 85 378 86 367 q 90 413 83 389 q 108 469 97 436 q 135 540 119 501 q 169 618 151 578 q 224 745 196 682 q 282 875 251 808 q 325 943 297 918 m 118 122 q 92 90 110 107 q 56 67 74 74 q 23 70 38 61 q 4 113 8 79 q 7 138 6 125 q 15 163 8 151 q 22 175 18 169 q 29 186 25 181 q 74 228 49 214 q 98 228 86 235 q 117 213 110 221 q 131 168 131 194 q 118 122 131 142 z "},"?":{"ha":479,"x_min":11,"x_max":515,"o":"m 97 571 q 94 547 99 558 q 82 528 90 535 q 63 521 74 521 q 43 533 53 521 q 11 619 11 571 q 30 714 11 667 q 80 802 49 761 q 142 868 111 843 q 209 911 171 892 q 288 941 247 931 q 371 951 329 951 q 449 932 413 950 q 483 905 469 922 q 503 867 496 888 q 513 824 511 846 q 513 782 515 801 q 484 690 507 733 q 433 607 461 646 q 374 528 406 567 q 310 451 342 490 q 281 413 294 432 q 254 374 268 393 q 230 331 242 354 q 199 293 218 308 q 166 283 179 278 q 144 303 153 289 q 132 338 136 318 q 129 371 128 357 q 147 440 132 406 q 182 505 161 474 q 227 564 203 536 q 276 614 251 592 q 347 686 315 651 q 399 751 378 721 q 429 806 419 782 q 435 843 439 829 q 376 856 428 868 q 278 819 328 843 q 187 759 228 794 q 120 676 146 724 q 97 571 94 629 m 171 124 q 153 98 167 113 q 123 73 139 83 q 91 62 107 63 q 65 81 75 61 q 57 108 58 92 q 61 136 56 124 q 94 186 71 164 q 106 194 100 190 q 118 201 111 199 q 138 203 129 206 q 156 194 146 200 q 167 181 163 190 q 172 163 171 171 q 174 143 175 156 q 171 124 174 131 z "},"-":{"ha":511,"x_min":53,"x_max":439,"o":"m 79 310 q 60 324 67 311 q 53 351 53 336 q 60 376 53 365 q 81 388 67 388 q 153 388 111 388 q 240 388 194 388 q 331 388 286 388 q 410 386 375 388 q 432 376 425 386 q 439 355 439 367 q 432 331 439 343 q 413 314 425 319 q 349 304 396 307 q 249 301 303 301 q 147 303 196 301 q 79 310 99 306 z "},"+":{"ha":496,"x_min":61,"x_max":419,"o":"m 397 399 q 414 378 408 392 q 419 351 419 365 q 413 325 419 338 q 393 307 407 313 q 334 294 367 293 q 272 296 301 294 q 251 226 261 261 q 221 163 240 192 q 198 145 210 146 q 177 153 186 144 q 163 175 168 161 q 158 201 158 189 q 163 247 158 225 q 174 293 168 269 q 127 291 150 290 q 83 299 104 292 q 66 315 71 303 q 62 340 61 326 q 69 367 63 354 q 86 385 75 379 q 147 401 114 399 q 214 404 181 403 q 235 478 224 440 q 275 540 247 517 q 290 547 283 547 q 303 541 297 546 q 312 529 308 536 q 317 515 315 522 q 316 464 319 490 q 306 410 313 438 q 354 410 331 413 q 397 399 378 408 z "},"=":{"ha":506,"x_min":78,"x_max":419,"o":"m 132 428 q 113 445 119 432 q 106 474 107 458 q 111 502 106 489 q 129 518 117 515 q 194 527 161 526 q 261 528 228 528 q 329 528 293 528 q 393 515 365 529 q 412 497 406 510 q 419 469 418 483 q 414 442 419 456 q 396 424 408 429 q 330 411 365 408 q 263 415 294 414 q 197 417 229 415 q 132 428 164 418 m 111 228 q 90 241 99 229 q 80 268 82 253 q 83 297 78 283 q 100 315 88 311 q 171 328 135 326 q 243 331 207 331 q 315 332 278 332 q 386 321 351 332 q 406 303 400 317 q 411 272 413 289 q 401 242 410 256 q 379 225 393 228 q 313 222 347 218 q 246 225 278 225 q 178 223 213 225 q 111 228 144 221 z "},"#":{"ha":672,"x_min":39,"x_max":615,"o":"m 590 524 q 608 506 601 519 q 615 476 614 492 q 610 447 615 460 q 592 431 604 433 q 538 421 565 424 q 481 419 510 418 q 469 394 475 407 q 460 369 464 382 q 451 351 454 360 q 444 331 447 342 q 482 324 464 328 q 517 310 500 319 q 532 292 526 304 q 537 267 538 281 q 530 243 536 254 q 510 229 524 232 q 460 229 486 225 q 407 238 433 233 q 387 181 397 210 q 360 128 376 151 q 333 109 346 108 q 312 122 321 110 q 298 152 303 135 q 294 183 293 169 q 299 213 297 199 q 307 243 301 228 l 278 243 q 229 241 254 243 q 179 236 204 239 q 163 206 172 221 q 138 181 153 192 q 118 178 126 174 q 104 193 110 183 q 95 214 99 203 q 92 231 92 225 l 92 232 q 57 236 74 232 q 42 247 46 238 q 40 266 39 256 q 44 287 40 276 q 56 301 49 297 q 107 322 78 315 q 128 374 117 349 q 151 422 140 399 q 114 428 132 425 q 79 439 96 432 q 65 453 69 443 q 60 474 60 463 q 64 497 60 486 q 76 513 68 507 q 141 533 106 528 q 213 542 176 539 q 219 555 215 549 q 226 568 224 561 q 251 606 239 589 q 290 629 264 622 q 306 626 299 631 q 317 613 313 621 q 323 594 321 604 q 325 579 325 585 q 323 561 324 571 q 319 542 322 551 l 332 542 q 383 543 357 542 q 436 544 410 544 q 444 562 440 553 q 451 578 447 571 q 479 631 465 606 q 518 671 493 656 q 537 672 529 678 q 549 656 544 667 q 554 633 553 644 q 556 615 556 621 q 547 576 554 596 q 532 538 540 557 q 590 524 565 533 m 342 339 q 360 382 351 361 q 379 424 369 403 q 357 425 368 425 q 335 425 346 425 q 302 424 319 425 q 267 422 285 424 q 252 394 260 407 q 238 368 244 382 l 225 339 q 255 340 240 340 q 285 340 269 340 q 313 340 300 340 q 342 339 326 340 z "},"%":{"ha":600,"x_min":22,"x_max":583,"o":"m 135 572 q 100 597 113 579 q 81 636 88 614 q 75 683 74 658 q 85 729 76 707 q 108 771 93 751 q 143 803 122 790 q 151 817 146 810 q 164 828 156 825 q 211 840 188 843 q 255 822 235 836 q 290 785 275 807 q 308 740 304 763 q 289 653 315 690 q 224 590 263 617 q 181 572 204 579 q 135 572 158 564 m 218 719 q 197 718 207 719 q 176 718 186 717 q 174 719 175 718 q 172 719 174 719 q 162 706 167 713 q 153 693 157 700 q 146 678 149 688 q 156 676 150 676 q 165 676 163 676 q 183 680 175 676 q 199 688 190 683 q 213 696 207 692 q 226 707 219 700 q 235 714 229 708 q 224 718 226 717 q 218 719 221 719 m 451 747 q 503 781 475 775 q 553 778 532 788 q 578 747 574 768 q 561 699 583 725 q 510 638 542 676 q 440 549 479 599 q 360 442 401 499 q 276 327 318 385 q 198 215 235 269 q 133 114 161 160 q 96 82 118 89 q 56 83 74 75 q 30 110 38 90 q 35 163 22 131 q 113 307 61 228 q 226 466 165 386 q 347 619 286 546 q 451 747 407 693 m 415 331 q 463 332 442 343 q 499 299 485 321 q 522 249 514 276 q 529 203 529 222 q 501 117 528 158 q 431 64 475 76 q 381 61 403 56 q 342 82 358 67 q 315 119 325 97 q 304 168 306 142 q 328 267 300 222 q 356 303 339 286 q 400 322 374 321 q 406 321 403 322 q 410 326 408 324 q 415 331 413 328 m 406 183 q 436 199 421 188 q 439 201 438 199 q 442 205 440 203 q 446 210 443 207 q 432 215 439 213 q 418 221 425 217 q 416 222 417 221 q 414 222 415 222 q 408 212 411 217 q 401 203 404 207 q 395 195 399 200 q 389 185 392 190 q 398 183 393 183 q 406 183 403 182 z "},",":{"ha":242,"x_min":39,"x_max":172,"o":"m 40 128 q 65 185 50 149 q 101 272 79 221 q 115 288 106 283 q 139 288 125 293 q 169 249 168 278 q 165 194 172 225 q 149 140 157 163 q 130 97 142 121 q 97 65 118 74 q 71 65 82 60 q 53 80 60 69 q 42 103 46 90 q 40 128 39 117 z "},".":{"ha":199,"x_min":44,"x_max":154,"o":"m 103 258 q 135 243 121 258 q 151 214 149 228 q 148 191 154 199 q 133 171 142 183 q 118 154 126 163 q 99 144 110 146 q 78 145 88 142 q 60 156 68 149 q 49 172 53 163 q 44 190 44 182 q 56 222 46 203 q 78 249 65 240 q 90 256 85 254 q 103 258 96 257 z "},"/":{"ha":354,"x_min":0,"x_max":460,"o":"m 419 969 q 440 969 432 975 q 452 954 447 964 q 458 933 457 944 q 458 914 460 921 q 452 884 456 894 q 439 854 449 874 q 256 488 351 681 q 86 100 161 294 q 60 70 76 81 q 25 75 44 60 q 2 118 4 92 q 6 168 0 144 q 78 347 36 254 q 166 534 119 440 q 261 720 213 628 q 356 896 310 813 q 381 938 367 917 q 419 969 396 960 z "},"|":{"ha":254,"x_min":8,"x_max":226,"o":"m 149 947 q 165 970 154 961 q 192 975 176 979 q 212 952 207 969 q 219 919 217 935 q 220 802 226 861 q 207 685 214 743 q 193 571 200 628 q 179 458 186 514 q 163 347 171 401 q 144 233 154 292 q 126 118 136 178 q 90 10 117 58 q 66 -13 79 -12 q 42 -3 53 -14 q 22 26 31 8 q 13 57 14 43 q 22 175 8 115 q 46 290 36 235 q 65 399 56 344 q 82 506 74 453 q 98 617 90 561 q 113 731 106 674 q 126 840 119 785 q 149 947 132 894 z "},"[":{"ha":313,"x_min":6,"x_max":419,"o":"m 238 1028 q 276 1034 251 1033 q 327 1031 301 1035 q 376 1021 353 1028 q 407 1004 399 1014 q 419 967 419 989 q 407 929 418 944 q 381 915 399 918 q 344 912 364 911 q 306 916 325 913 q 274 921 286 919 q 231 738 253 838 q 185 535 208 639 q 142 328 163 431 q 106 133 122 225 q 135 138 117 135 q 175 144 154 142 q 216 148 196 147 q 250 144 236 149 q 276 123 271 136 q 278 95 282 110 q 262 66 274 81 q 235 42 250 51 q 185 25 211 28 q 132 19 160 22 q 97 17 115 17 q 63 25 79 18 q 33 49 44 33 q 15 84 21 65 q 7 123 8 103 q 7 161 6 143 q 31 345 14 249 q 72 540 49 442 q 120 737 94 639 q 171 926 146 835 q 192 985 181 958 q 238 1028 203 1013 z "},"{":{"ha":318,"x_min":-1,"x_max":464,"o":"m 443 988 q 456 963 450 979 q 463 929 461 946 q 458 899 464 913 q 436 881 451 885 q 398 870 415 874 q 365 849 381 867 q 342 816 351 833 q 326 782 333 799 q 303 715 314 749 q 279 647 292 681 q 249 582 267 614 q 207 521 232 550 q 228 457 224 492 q 228 389 232 422 q 208 298 221 342 q 182 208 194 254 q 175 179 179 197 q 172 145 171 161 q 181 122 172 129 q 214 128 190 115 q 250 122 235 139 q 271 86 265 104 q 274 39 278 64 q 253 -4 269 14 q 221 -27 239 -21 q 183 -31 203 -33 q 146 -20 164 -29 q 114 4 128 -11 q 72 79 82 38 q 65 165 63 121 q 81 254 68 210 q 110 336 94 299 q 122 376 118 357 q 122 410 126 396 q 101 434 117 425 q 53 444 85 443 q 13 472 26 446 q -1 526 0 497 q 11 579 -1 556 q 50 601 24 603 q 122 617 92 599 q 173 667 151 636 q 210 736 194 697 q 240 815 225 775 q 272 893 256 856 q 313 958 289 931 q 341 985 325 972 q 374 1003 357 997 q 410 1007 392 1010 q 443 988 428 1004 z "},"<":{"ha":482,"x_min":13,"x_max":447,"o":"m 413 575 q 435 567 428 574 q 445 549 443 560 q 444 527 447 539 q 436 506 442 515 q 383 451 421 476 q 300 406 346 426 q 208 367 254 385 q 133 333 163 349 q 174 313 146 326 q 233 284 203 300 q 290 252 264 268 q 325 226 317 236 q 339 205 333 218 q 343 180 344 192 q 332 160 342 168 q 300 151 322 151 q 259 159 279 151 q 219 176 239 167 q 179 197 199 186 q 142 217 160 208 q 72 251 106 235 q 21 304 39 268 q 14 333 15 315 q 15 367 13 350 q 26 397 18 383 q 47 417 33 411 q 143 453 96 433 q 238 496 190 472 q 278 519 257 504 q 322 546 300 533 q 367 567 344 558 q 413 575 390 576 z "},"~":{"ha":553,"x_min":58,"x_max":469,"o":"m 115 306 q 87 300 99 294 q 68 319 75 306 q 60 349 61 332 q 63 379 58 367 q 94 428 72 401 q 144 475 117 454 q 203 504 172 496 q 261 500 233 513 q 302 461 289 489 q 324 404 315 433 q 329 386 326 396 q 337 369 332 376 q 350 358 342 361 q 371 358 358 354 q 399 376 386 363 q 428 397 413 389 q 453 396 444 406 q 466 369 463 386 q 468 335 469 353 q 463 310 467 318 q 422 261 447 279 q 370 240 397 243 q 317 249 343 236 q 274 294 292 263 q 262 325 267 310 q 251 357 257 340 q 240 383 246 375 q 214 382 235 390 q 162 347 183 371 q 115 306 140 324 z "},"]":{"ha":415,"x_min":7,"x_max":421,"o":"m 189 31 q 150 24 175 25 q 99 27 125 24 q 50 38 72 31 q 19 54 28 44 q 8 92 7 69 q 19 129 8 114 q 45 144 28 140 q 82 147 63 147 q 121 142 101 146 q 153 138 140 139 q 196 320 174 221 q 241 524 218 419 q 284 731 264 628 q 321 925 304 833 q 290 920 310 924 q 250 914 271 917 q 210 910 229 911 q 176 914 190 910 q 150 935 156 922 q 149 963 144 949 q 165 992 153 978 q 192 1017 176 1007 q 241 1033 215 1031 q 294 1039 267 1036 q 329 1041 311 1042 q 364 1033 347 1040 q 394 1009 382 1025 q 412 974 406 993 q 419 935 418 956 q 419 897 421 915 q 395 713 413 810 q 355 518 378 617 q 306 322 332 419 q 256 132 281 224 q 235 73 246 100 q 189 31 224 46 z "},">":{"ha":513,"x_min":14,"x_max":449,"o":"m 49 154 q 26 163 33 156 q 16 180 18 169 q 17 201 14 190 q 25 224 19 213 q 77 278 39 253 q 161 324 115 303 q 253 363 207 344 q 328 396 299 381 q 287 415 315 401 q 228 445 258 429 q 171 476 197 461 q 136 503 144 492 q 122 524 128 511 q 118 549 117 538 q 129 569 119 561 q 161 578 139 578 q 202 570 182 578 q 242 553 222 563 q 282 532 263 543 q 319 513 301 521 q 356 495 338 503 q 390 478 374 488 q 419 456 406 468 q 440 425 432 443 q 447 397 446 414 q 446 363 449 379 q 435 332 443 346 q 414 313 428 318 q 318 276 365 296 q 224 233 271 257 q 183 210 204 225 q 139 183 161 196 q 94 162 117 171 q 49 154 71 153 z "},"\"":{"ha":439,"x_min":150,"x_max":397,"o":"m 228 1022 q 247 1020 238 1025 q 263 1008 257 1015 q 271 990 269 1000 q 268 974 272 981 q 258 959 265 969 q 243 937 251 949 q 227 915 235 925 q 215 900 219 904 q 181 892 203 888 q 154 915 160 896 q 165 951 150 935 q 190 983 179 967 q 206 1004 199 994 q 228 1022 214 1014 m 353 1022 q 372 1020 363 1025 q 388 1008 382 1015 q 396 990 394 1000 q 393 974 397 981 q 383 959 390 969 q 368 937 376 949 q 352 915 360 925 q 340 900 344 904 q 306 892 328 888 q 279 915 285 896 q 290 951 275 935 q 315 983 304 967 q 331 1004 324 994 q 353 1022 339 1014 z "},"":{"ha":439,"x_min":150,"x_max":397,"o":"m 228 1022 q 247 1020 238 1025 q 263 1008 257 1015 q 271 990 269 1000 q 268 974 272 981 q 258 959 265 969 q 243 937 251 949 q 227 915 235 925 q 215 900 219 904 q 181 892 203 888 q 154 915 160 896 q 165 951 150 935 q 190 983 179 967 q 206 1004 199 994 q 228 1022 214 1014 m 353 1022 q 372 1020 363 1025 q 388 1008 382 1015 q 396 990 394 1000 q 393 974 397 981 q 383 959 390 969 q 368 937 376 949 q 352 915 360 925 q 340 900 344 904 q 306 892 328 888 q 279 915 285 896 q 290 951 275 935 q 315 983 304 967 q 331 1004 324 994 q 353 1022 339 1014 z "},"":{"ha":439,"x_min":150,"x_max":397,"o":"m 228 1022 q 247 1020 238 1025 q 263 1008 257 1015 q 271 990 269 1000 q 268 974 272 981 q 258 959 265 969 q 243 937 251 949 q 227 915 235 925 q 215 900 219 904 q 181 892 203 888 q 154 915 160 896 q 165 951 150 935 q 190 983 179 967 q 206 1004 199 994 q 228 1022 214 1014 m 353 1022 q 372 1020 363 1025 q 388 1008 382 1015 q 396 990 394 1000 q 393 974 397 981 q 383 959 390 969 q 368 937 376 949 q 352 915 360 925 q 340 900 344 904 q 306 892 328 888 q 279 915 285 896 q 290 951 275 935 q 315 983 304 967 q 331 1004 324 994 q 353 1022 339 1014 z "},"":{"ha":314,"x_min":150,"x_max":272,"o":"m 228 1022 q 247 1020 238 1025 q 263 1008 257 1015 q 271 990 269 1000 q 268 974 272 981 q 258 959 265 969 q 243 937 251 949 q 227 915 235 925 q 215 900 219 904 q 181 892 203 888 q 154 915 160 896 q 165 951 150 935 q 190 983 179 967 q 206 1004 199 994 q 228 1022 214 1014 z "},"":{"ha":314,"x_min":150,"x_max":272,"o":"m 228 1022 q 247 1020 238 1025 q 263 1008 257 1015 q 271 990 269 1000 q 268 974 272 981 q 258 959 265 969 q 243 937 251 949 q 227 915 235 925 q 215 900 219 904 q 181 892 203 888 q 154 915 160 896 q 165 951 150 935 q 190 983 179 967 q 206 1004 199 994 q 228 1022 214 1014 z "},":":{"ha":268,"x_min":44,"x_max":200,"o":"m 103 301 q 135 286 121 301 q 151 257 149 271 q 148 234 154 242 q 133 214 142 226 q 118 197 126 206 q 99 188 110 189 q 78 188 88 185 q 60 199 68 192 q 49 215 53 206 q 44 233 44 225 q 56 265 46 246 q 78 292 65 283 q 90 299 85 297 q 103 301 96 300 m 149 590 q 181 575 167 590 q 197 546 194 560 q 194 523 200 531 q 179 503 188 515 q 164 486 172 494 q 144 476 156 478 q 124 477 133 474 q 106 488 114 481 q 94 504 99 494 q 90 522 90 514 q 101 553 92 535 q 124 581 111 572 q 136 588 131 586 q 149 590 142 589 z "},";":{"ha":268,"x_min":8,"x_max":200,"o":"m 149 590 q 181 575 167 590 q 197 546 194 560 q 194 523 200 531 q 179 503 188 515 q 164 486 172 494 q 144 476 156 478 q 124 477 133 474 q 106 488 114 481 q 94 504 99 494 q 90 522 90 514 q 101 553 92 535 q 124 581 111 572 q 136 588 131 586 q 149 590 142 589 m 10 128 q 34 185 19 149 q 71 272 49 221 q 85 288 75 283 q 108 288 94 293 q 139 249 138 278 q 134 194 142 225 q 118 140 126 163 q 99 97 111 121 q 67 65 88 74 q 40 65 51 60 q 22 80 29 69 q 12 103 15 90 q 10 128 8 117 z "},"\\":{"ha":444,"x_min":-47,"x_max":413,"o":"m -7 969 q 31 938 17 960 q 57 896 46 917 q 151 720 103 813 q 247 534 200 628 q 334 347 293 440 q 407 168 375 254 q 410 118 413 144 q 388 75 408 92 q 352 70 368 60 q 326 100 336 81 q 156 488 251 294 q -26 854 61 681 q -40 884 -36 874 q -46 914 -43 894 q -46 933 -47 921 q -40 954 -44 944 q -27 969 -35 964 q -7 969 -19 975 z "},"}":{"ha":463,"x_min":-50,"x_max":415,"o":"m -29 -4 q -42 20 -36 4 q -49 53 -47 36 q -44 84 -50 69 q -22 103 -37 99 q 16 113 -1 110 q 49 135 33 117 q 72 167 63 150 q 88 201 81 185 q 111 269 100 235 q 135 336 122 303 q 165 401 147 369 q 207 463 182 433 q 186 526 190 492 q 186 594 182 561 q 206 685 193 642 q 232 775 219 729 q 239 804 235 786 q 242 838 243 822 q 233 861 242 854 q 200 856 224 868 q 164 862 179 844 q 143 897 149 879 q 140 944 136 919 q 161 988 144 969 q 193 1010 175 1004 q 231 1015 211 1017 q 268 1003 250 1013 q 300 979 286 993 q 341 904 331 946 q 349 818 351 863 q 333 729 346 774 q 304 647 319 685 q 292 607 296 626 q 292 573 288 588 q 313 549 297 558 q 361 539 329 540 q 401 511 388 536 q 415 457 414 486 q 403 404 415 428 q 364 382 390 381 q 292 365 321 383 q 241 317 263 347 q 203 247 219 286 q 173 168 188 208 q 142 90 158 128 q 101 25 125 51 q 73 -1 89 11 q 39 -20 57 -14 q 3 -24 21 -26 q -29 -4 -14 -21 z "},"":{"ha":460,"x_min":44,"x_max":422,"o":"m 103 258 q 135 243 121 258 q 151 214 149 228 q 148 191 154 199 q 133 171 142 183 q 118 154 126 163 q 99 144 110 146 q 78 145 88 142 q 60 156 68 149 q 49 172 53 163 q 44 190 44 182 q 56 222 46 203 q 78 249 65 240 q 90 256 85 254 q 103 258 96 257 m 238 258 q 269 243 256 258 q 286 214 283 228 q 283 191 289 199 q 268 171 276 183 q 253 154 261 163 q 233 144 244 146 q 213 145 222 142 q 195 156 203 149 q 183 172 188 163 q 179 190 179 182 q 190 222 181 203 q 213 249 200 240 q 225 256 219 254 q 238 258 231 257 m 371 258 q 403 243 389 258 q 419 214 417 228 q 416 191 422 199 q 401 171 410 183 q 386 154 394 163 q 367 144 378 146 q 346 145 356 142 q 328 156 336 149 q 317 172 321 163 q 313 190 313 182 q 324 222 314 203 q 346 249 333 240 q 358 256 353 254 q 371 258 364 257 z "},"":{"ha":242,"x_min":39,"x_max":172,"o":"m 40 128 q 65 185 50 149 q 101 272 79 221 q 115 288 106 283 q 139 288 125 293 q 169 249 168 278 q 165 194 172 225 q 149 140 157 163 q 130 97 142 121 q 97 65 118 74 q 71 65 82 60 q 53 80 60 69 q 42 103 46 90 q 40 128 39 117 z "},"":{"ha":386,"x_min":39,"x_max":319,"o":"m 40 128 q 65 185 50 149 q 101 272 79 221 q 115 288 106 283 q 139 288 125 293 q 169 249 168 278 q 165 194 172 225 q 149 140 157 163 q 130 97 142 121 q 97 65 118 74 q 71 65 82 60 q 53 80 60 69 q 42 103 46 90 q 40 128 39 117 m 188 128 q 212 185 197 149 q 249 272 226 221 q 263 288 253 283 q 286 288 272 293 q 317 249 315 278 q 312 194 319 225 q 296 140 304 163 q 277 97 289 121 q 244 65 265 74 q 218 65 229 60 q 200 80 207 69 q 190 103 193 90 q 188 128 186 117 z "},"(":{"ha":306,"x_min":-7,"x_max":511,"o":"m 499 940 q 448 890 479 910 q 389 847 417 869 q 338 803 363 826 q 290 757 313 781 q 210 653 246 708 q 149 540 174 599 q 106 402 121 474 q 106 258 90 331 q 154 144 118 199 q 199 95 174 117 q 244 47 225 74 q 255 19 251 39 q 256 -19 258 0 q 245 -53 254 -39 q 218 -64 236 -67 q 145 -31 178 -58 q 88 33 113 -4 q 45 113 63 71 q 18 189 28 154 q 1 376 -7 281 q 39 558 8 471 q 108 715 65 642 q 207 854 151 789 q 263 915 233 886 q 324 969 292 943 q 355 994 338 981 q 391 1021 372 1008 q 430 1040 410 1033 q 468 1044 450 1047 q 494 1029 485 1042 q 508 1001 504 1017 q 508 969 511 986 q 499 940 506 953 z "},"&":{"ha":825,"x_min":-11,"x_max":782,"o":"m 763 236 q 781 203 779 225 q 773 160 782 182 q 746 125 764 139 q 706 115 728 111 q 586 161 639 129 q 475 233 533 193 q 435 199 456 215 q 394 171 415 183 q 327 133 363 150 q 254 104 292 115 q 177 91 217 93 q 100 100 138 89 q 42 132 65 110 q 7 183 19 154 q -8 244 -6 211 q -4 308 -11 276 q 48 426 8 372 q 136 522 88 479 q 146 532 142 528 q 156 540 150 536 q 131 680 125 607 q 183 813 136 753 q 296 909 228 872 q 439 957 364 946 q 518 959 478 964 q 589 937 558 954 q 637 888 619 919 q 649 811 654 857 q 624 745 644 775 q 577 690 604 715 q 519 644 550 665 q 460 603 488 622 q 391 556 425 579 q 322 508 357 532 q 464 399 389 447 q 501 439 483 418 q 535 482 518 460 q 573 502 556 507 q 601 478 590 497 q 613 432 611 458 q 604 388 614 406 q 586 361 594 374 q 568 336 578 349 q 665 288 617 311 q 763 236 714 264 m 458 767 q 510 831 500 806 q 508 869 519 856 q 469 887 497 883 q 411 886 442 890 q 311 847 357 879 q 239 773 265 815 q 210 685 213 731 q 240 606 208 639 q 351 681 296 643 q 458 767 406 718 m 196 232 q 265 251 231 238 q 331 283 300 265 l 368 308 q 225 435 290 365 q 176 392 200 415 q 132 343 151 369 q 118 326 126 336 q 102 303 110 315 q 90 280 94 292 q 88 258 85 268 q 104 238 90 244 q 135 230 118 232 q 169 229 151 228 q 196 232 186 231 z "},"`":{"ha":439,"x_min":65,"x_max":324,"o":"m 308 861 q 319 839 315 854 q 322 809 324 824 q 313 784 321 794 q 289 778 306 774 q 234 803 261 785 q 182 833 207 821 q 126 857 154 846 q 78 890 99 868 q 66 927 65 904 q 89 956 67 950 q 118 956 103 958 q 148 949 133 954 q 176 937 163 943 q 203 925 190 931 q 259 898 229 913 q 308 861 289 883 z "},")":{"ha":564,"x_min":-8,"x_max":510,"o":"m 4 43 q 55 94 24 74 q 114 136 86 114 q 165 180 140 157 q 213 226 190 203 q 293 330 257 275 q 354 443 329 385 q 397 581 382 510 q 397 725 413 653 q 349 839 385 785 q 303 888 329 867 q 258 936 278 910 q 248 964 251 944 q 247 1003 244 983 q 258 1035 249 1022 q 285 1047 267 1049 q 358 1015 325 1042 q 415 950 390 988 q 458 871 440 913 q 485 794 475 829 q 502 608 510 703 q 464 425 494 513 q 394 268 438 342 q 296 129 351 194 q 240 69 269 97 q 179 14 211 40 q 148 -11 165 3 q 112 -37 131 -25 q 73 -57 93 -50 q 35 -61 53 -64 q 8 -47 18 -58 q -5 -19 -1 -35 q -6 14 -8 -3 q 4 43 -3 31 z "},"T":{"ha":796,"x_min":-7,"x_max":1497,"o":"m 1460 1033 q 1487 1010 1478 1029 q 1497 969 1496 992 q 1491 925 1497 947 q 1474 893 1485 903 q 1405 852 1444 865 q 1322 835 1365 839 q 1235 834 1279 832 q 1156 839 1192 836 q 1008 859 1081 846 q 860 888 935 872 q 876 858 871 876 q 875 819 881 839 q 760 502 838 656 q 578 222 682 349 q 490 131 540 176 q 383 53 440 86 q 264 8 325 21 q 142 15 203 -4 q 37 94 69 38 q -1 218 4 150 q 10 357 -7 286 q 54 481 26 428 q 208 671 110 596 q 238 693 222 682 q 269 714 253 704 q 261 742 264 728 q 274 817 258 782 q 315 883 290 853 q 372 936 340 913 q 435 976 404 960 q 587 1021 508 1013 q 744 1025 665 1029 q 927 1009 836 1019 q 1111 999 1018 999 q 1200 1001 1156 997 q 1289 1011 1244 1004 q 1374 1030 1331 1018 q 1460 1033 1418 1042 m 799 871 q 817 894 808 888 q 666 909 742 907 q 519 888 590 911 q 394 818 446 867 q 365 785 376 803 q 343 746 354 767 q 424 743 388 760 q 472 706 454 731 q 497 649 490 681 q 502 585 504 618 q 492 522 500 551 q 433 418 475 463 q 333 357 392 374 q 297 367 311 351 q 280 407 283 383 q 283 454 276 431 q 308 486 290 478 q 345 513 319 492 q 392 558 371 533 q 417 603 413 582 q 392 629 422 624 q 341 623 368 633 q 289 595 314 613 q 241 557 264 578 q 203 519 218 536 q 142 436 175 490 q 89 324 108 382 q 74 224 68 264 q 101 164 79 185 q 159 139 124 143 q 234 143 194 135 q 313 171 274 151 q 382 218 351 190 q 473 312 431 263 q 553 414 515 361 q 686 628 628 518 q 744 747 718 686 q 799 871 771 808 z "},"h":{"ha":472,"x_min":-96,"x_max":525,"o":"m 515 378 q 524 347 525 365 q 515 315 522 329 q 472 235 494 274 q 419 160 449 196 q 393 129 408 146 q 360 97 378 113 q 324 72 343 82 q 286 63 306 63 q 253 74 265 63 q 233 101 240 85 q 224 135 226 117 q 224 168 222 153 q 246 253 229 213 q 283 331 263 294 q 330 405 306 368 q 378 479 354 442 q 315 445 350 471 q 245 387 281 419 q 178 321 210 354 q 125 265 146 288 q 60 185 89 226 q -4 88 32 143 q -28 68 -15 72 q -52 69 -40 64 q -74 88 -64 75 q -87 117 -83 100 q -77 218 -96 169 q -37 315 -58 267 q 4 407 -18 363 q 49 496 26 451 q 84 562 64 525 q 126 638 104 599 q 171 712 149 676 q 214 774 193 747 q 227 788 221 781 q 240 800 233 794 q 273 814 254 813 q 308 810 292 815 q 333 792 324 804 q 338 768 342 781 q 330 752 335 761 q 319 733 325 743 q 229 571 275 651 q 139 406 183 490 q 180 443 154 418 q 237 495 206 468 q 302 547 268 522 q 367 581 336 571 q 422 581 397 590 q 458 531 446 571 q 452 492 458 511 q 437 456 446 474 q 417 422 428 439 q 396 389 406 404 q 335 291 368 342 q 288 185 301 240 q 287 156 281 161 q 306 156 293 150 q 337 176 319 161 q 371 211 354 192 q 426 290 403 247 q 474 376 450 333 q 493 390 481 392 q 515 378 506 389 z "},"i":{"ha":215,"x_min":-49,"x_max":258,"o":"m 217 381 q 235 394 226 394 q 250 385 244 393 q 257 365 256 378 q 253 344 258 353 q 213 276 238 321 q 158 187 189 231 q 93 111 128 143 q 24 79 58 79 q -17 109 -3 86 q -37 156 -31 132 q -41 257 -49 206 q -15 358 -33 308 q 28 453 3 407 q 81 543 54 500 q 104 561 89 556 q 136 567 119 567 q 167 562 153 567 q 188 547 181 557 q 183 493 204 526 q 158 445 178 483 q 115 359 138 407 q 73 264 93 311 q 47 190 53 217 q 56 164 42 163 q 114 217 69 165 q 167 297 142 249 q 217 381 193 344 m 231 726 q 247 690 246 714 q 239 650 249 665 q 217 631 229 635 q 190 622 206 628 q 163 617 176 619 q 138 621 150 614 q 121 635 126 625 q 115 658 115 646 q 117 683 114 671 q 128 703 121 694 q 162 724 139 714 q 201 735 185 735 q 217 733 211 736 q 231 726 224 731 z "}}}
